  0
SECTION
  2
BLOCKS
  0
ENDSEC
  0
SECTION
  2
ENTITIES
  0
LINE
  8
0
 10
-65
 11
-65
 20
-95
 21
95
  0
LINE
  8
0
 10
-65
 11
-64.99
 20
95
 21
95.314
  0
LINE
  8
0
 10
-64.99
 11
-64.961
 20
95.314
 21
95.627
  0
LINE
  8
0
 10
-64.961
 11
-64.911
 20
95.627
 21
95.937
  0
LINE
  8
0
 10
-64.911
 11
-64.843
 20
95.937
 21
96.243
  0
LINE
  8
0
 10
-64.843
 11
-64.755
 20
96.243
 21
96.545
  0
LINE
  8
0
 10
-64.755
 11
-64.649
 20
96.545
 21
96.841
  0
LINE
  8
0
 10
-64.649
 11
-64.524
 20
96.841
 21
97.129
  0
LINE
  8
0
 10
-64.524
 11
-64.382
 20
97.129
 21
97.409
  0
LINE
  8
0
 10
-64.382
 11
-64.222
 20
97.409
 21
97.679
  0
LINE
  8
0
 10
-64.222
 11
-64.045
 20
97.679
 21
97.939
  0
LINE
  8
0
 10
-64.045
 11
-63.853
 20
97.939
 21
98.187
  0
LINE
  8
0
 10
-63.853
 11
-63.645
 20
98.187
 21
98.423
  0
LINE
  8
0
 10
-63.645
 11
-63.423
 20
98.423
 21
98.645
  0
LINE
  8
0
 10
-63.423
 11
-63.187
 20
98.645
 21
98.853
  0
LINE
  8
0
 10
-63.187
 11
-62.939
 20
98.853
 21
99.045
  0
LINE
  8
0
 10
-62.939
 11
-62.679
 20
99.045
 21
99.222
  0
LINE
  8
0
 10
-62.679
 11
-62.409
 20
99.222
 21
99.382
  0
LINE
  8
0
 10
-62.409
 11
-62.129
 20
99.382
 21
99.524
  0
LINE
  8
0
 10
-62.129
 11
-61.841
 20
99.524
 21
99.649
  0
LINE
  8
0
 10
-61.841
 11
-61.545
 20
99.649
 21
99.755
  0
LINE
  8
0
 10
-61.545
 11
-61.243
 20
99.755
 21
99.843
  0
LINE
  8
0
 10
-61.243
 11
-60.937
 20
99.843
 21
99.911
  0
LINE
  8
0
 10
-60.937
 11
-60.627
 20
99.911
 21
99.961
  0
LINE
  8
0
 10
-60.627
 11
-60.314
 20
99.961
 21
99.99
  0
LINE
  8
0
 10
-60.314
 11
-60
 20
99.99
 21
100
  0
LINE
  8
0
 10
-60
 11
60
 20
100
 21
100
  0
LINE
  8
0
 10
60
 11
60.314
 20
100
 21
99.99
  0
LINE
  8
0
 10
60.314
 11
60.627
 20
99.99
 21
99.961
  0
LINE
  8
0
 10
60.627
 11
60.937
 20
99.961
 21
99.911
  0
LINE
  8
0
 10
60.937
 11
61.243
 20
99.911
 21
99.843
  0
LINE
  8
0
 10
61.243
 11
61.545
 20
99.843
 21
99.755
  0
LINE
  8
0
 10
61.545
 11
61.841
 20
99.755
 21
99.649
  0
LINE
  8
0
 10
61.841
 11
62.129
 20
99.649
 21
99.524
  0
LINE
  8
0
 10
62.129
 11
62.409
 20
99.524
 21
99.382
  0
LINE
  8
0
 10
62.409
 11
62.679
 20
99.382
 21
99.222
  0
LINE
  8
0
 10
62.679
 11
62.939
 20
99.222
 21
99.045
  0
LINE
  8
0
 10
62.939
 11
63.187
 20
99.045
 21
98.853
  0
LINE
  8
0
 10
63.187
 11
63.423
 20
98.853
 21
98.645
  0
LINE
  8
0
 10
63.423
 11
63.645
 20
98.645
 21
98.423
  0
LINE
  8
0
 10
63.645
 11
63.853
 20
98.423
 21
98.187
  0
LINE
  8
0
 10
63.853
 11
64.045
 20
98.187
 21
97.939
  0
LINE
  8
0
 10
64.045
 11
64.222
 20
97.939
 21
97.679
  0
LINE
  8
0
 10
64.222
 11
64.382
 20
97.679
 21
97.409
  0
LINE
  8
0
 10
64.382
 11
64.524
 20
97.409
 21
97.129
  0
LINE
  8
0
 10
64.524
 11
64.649
 20
97.129
 21
96.841
  0
LINE
  8
0
 10
64.649
 11
64.755
 20
96.841
 21
96.545
  0
LINE
  8
0
 10
64.755
 11
64.843
 20
96.545
 21
96.243
  0
LINE
  8
0
 10
64.843
 11
64.911
 20
96.243
 21
95.937
  0
LINE
  8
0
 10
64.911
 11
64.961
 20
95.937
 21
95.627
  0
LINE
  8
0
 10
64.961
 11
64.99
 20
95.627
 21
95.314
  0
LINE
  8
0
 10
64.99
 11
65
 20
95.314
 21
95
  0
LINE
  8
0
 10
65
 11
65
 20
95
 21
-95
  0
LINE
  8
0
 10
65
 11
64.99
 20
-95
 21
-95.314
  0
LINE
  8
0
 10
64.99
 11
64.961
 20
-95.314
 21
-95.627
  0
LINE
  8
0
 10
64.961
 11
64.911
 20
-95.627
 21
-95.937
  0
LINE
  8
0
 10
64.911
 11
64.843
 20
-95.937
 21
-96.243
  0
LINE
  8
0
 10
64.843
 11
64.755
 20
-96.243
 21
-96.545
  0
LINE
  8
0
 10
64.755
 11
64.649
 20
-96.545
 21
-96.841
  0
LINE
  8
0
 10
64.649
 11
64.524
 20
-96.841
 21
-97.129
  0
LINE
  8
0
 10
64.524
 11
64.382
 20
-97.129
 21
-97.409
  0
LINE
  8
0
 10
64.382
 11
64.222
 20
-97.409
 21
-97.679
  0
LINE
  8
0
 10
64.222
 11
64.045
 20
-97.679
 21
-97.939
  0
LINE
  8
0
 10
64.045
 11
63.853
 20
-97.939
 21
-98.187
  0
LINE
  8
0
 10
63.853
 11
63.645
 20
-98.187
 21
-98.423
  0
LINE
  8
0
 10
63.645
 11
63.423
 20
-98.423
 21
-98.645
  0
LINE
  8
0
 10
63.423
 11
63.187
 20
-98.645
 21
-98.853
  0
LINE
  8
0
 10
63.187
 11
62.939
 20
-98.853
 21
-99.045
  0
LINE
  8
0
 10
62.939
 11
62.679
 20
-99.045
 21
-99.222
  0
LINE
  8
0
 10
62.679
 11
62.409
 20
-99.222
 21
-99.382
  0
LINE
  8
0
 10
62.409
 11
62.129
 20
-99.382
 21
-99.524
  0
LINE
  8
0
 10
62.129
 11
61.841
 20
-99.524
 21
-99.649
  0
LINE
  8
0
 10
61.841
 11
61.545
 20
-99.649
 21
-99.755
  0
LINE
  8
0
 10
61.545
 11
61.243
 20
-99.755
 21
-99.843
  0
LINE
  8
0
 10
61.243
 11
60.937
 20
-99.843
 21
-99.911
  0
LINE
  8
0
 10
60.937
 11
60.627
 20
-99.911
 21
-99.961
  0
LINE
  8
0
 10
60.627
 11
60.314
 20
-99.961
 21
-99.99
  0
LINE
  8
0
 10
60.314
 11
60
 20
-99.99
 21
-100
  0
LINE
  8
0
 10
60
 11
-60
 20
-100
 21
-100
  0
LINE
  8
0
 10
-60
 11
-60.314
 20
-100
 21
-99.99
  0
LINE
  8
0
 10
-60.314
 11
-60.627
 20
-99.99
 21
-99.961
  0
LINE
  8
0
 10
-60.627
 11
-60.937
 20
-99.961
 21
-99.911
  0
LINE
  8
0
 10
-60.937
 11
-61.243
 20
-99.911
 21
-99.843
  0
LINE
  8
0
 10
-61.243
 11
-61.545
 20
-99.843
 21
-99.755
  0
LINE
  8
0
 10
-61.545
 11
-61.841
 20
-99.755
 21
-99.649
  0
LINE
  8
0
 10
-61.841
 11
-62.129
 20
-99.649
 21
-99.524
  0
LINE
  8
0
 10
-62.129
 11
-62.409
 20
-99.524
 21
-99.382
  0
LINE
  8
0
 10
-62.409
 11
-62.679
 20
-99.382
 21
-99.222
  0
LINE
  8
0
 10
-62.679
 11
-62.939
 20
-99.222
 21
-99.045
  0
LINE
  8
0
 10
-62.939
 11
-63.187
 20
-99.045
 21
-98.853
  0
LINE
  8
0
 10
-63.187
 11
-63.423
 20
-98.853
 21
-98.645
  0
LINE
  8
0
 10
-63.423
 11
-63.645
 20
-98.645
 21
-98.423
  0
LINE
  8
0
 10
-63.645
 11
-63.853
 20
-98.423
 21
-98.187
  0
LINE
  8
0
 10
-63.853
 11
-64.045
 20
-98.187
 21
-97.939
  0
LINE
  8
0
 10
-64.045
 11
-64.222
 20
-97.939
 21
-97.679
  0
LINE
  8
0
 10
-64.222
 11
-64.382
 20
-97.679
 21
-97.409
  0
LINE
  8
0
 10
-64.382
 11
-64.524
 20
-97.409
 21
-97.129
  0
LINE
  8
0
 10
-64.524
 11
-64.649
 20
-97.129
 21
-96.841
  0
LINE
  8
0
 10
-64.649
 11
-64.755
 20
-96.841
 21
-96.545
  0
LINE
  8
0
 10
-64.755
 11
-64.843
 20
-96.545
 21
-96.243
  0
LINE
  8
0
 10
-64.843
 11
-64.911
 20
-96.243
 21
-95.937
  0
LINE
  8
0
 10
-64.911
 11
-64.961
 20
-95.937
 21
-95.627
  0
LINE
  8
0
 10
-64.961
 11
-64.99
 20
-95.627
 21
-95.314
  0
LINE
  8
0
 10
-64.99
 11
-65
 20
-95.314
 21
-95
  0
LINE
  8
0
 10
-5
 11
-4.99
 20
0
 21
0.314
  0
LINE
  8
0
 10
-4.99
 11
-4.961
 20
0.314
 21
0.627
  0
LINE
  8
0
 10
-4.961
 11
-4.911
 20
0.627
 21
0.937
  0
LINE
  8
0
 10
-4.911
 11
-4.843
 20
0.937
 21
1.243
  0
LINE
  8
0
 10
-4.843
 11
-4.755
 20
1.243
 21
1.545
  0
LINE
  8
0
 10
-4.755
 11
-4.649
 20
1.545
 21
1.841
  0
LINE
  8
0
 10
-4.649
 11
-4.524
 20
1.841
 21
2.129
  0
LINE
  8
0
 10
-4.524
 11
-4.382
 20
2.129
 21
2.409
  0
LINE
  8
0
 10
-4.382
 11
-4.222
 20
2.409
 21
2.679
  0
LINE
  8
0
 10
-4.222
 11
-4.045
 20
2.679
 21
2.939
  0
LINE
  8
0
 10
-4.045
 11
-3.853
 20
2.939
 21
3.187
  0
LINE
  8
0
 10
-3.853
 11
-3.645
 20
3.187
 21
3.423
  0
LINE
  8
0
 10
-3.645
 11
-3.423
 20
3.423
 21
3.645
  0
LINE
  8
0
 10
-3.423
 11
-3.187
 20
3.645
 21
3.853
  0
LINE
  8
0
 10
-3.187
 11
-2.939
 20
3.853
 21
4.045
  0
LINE
  8
0
 10
-2.939
 11
-2.679
 20
4.045
 21
4.222
  0
LINE
  8
0
 10
-2.679
 11
-2.409
 20
4.222
 21
4.382
  0
LINE
  8
0
 10
-2.409
 11
-2.129
 20
4.382
 21
4.524
  0
LINE
  8
0
 10
-2.129
 11
-1.841
 20
4.524
 21
4.649
  0
LINE
  8
0
 10
-1.841
 11
-1.545
 20
4.649
 21
4.755
  0
LINE
  8
0
 10
-1.545
 11
-1.243
 20
4.755
 21
4.843
  0
LINE
  8
0
 10
-1.243
 11
-0.937
 20
4.843
 21
4.911
  0
LINE
  8
0
 10
-0.937
 11
-0.627
 20
4.911
 21
4.961
  0
LINE
  8
0
 10
-0.627
 11
-0.314
 20
4.961
 21
4.99
  0
LINE
  8
0
 10
-0.314
 11
0
 20
4.99
 21
5
  0
LINE
  8
0
 10
0
 11
0.314
 20
5
 21
4.99
  0
LINE
  8
0
 10
0.314
 11
0.627
 20
4.99
 21
4.961
  0
LINE
  8
0
 10
0.627
 11
0.937
 20
4.961
 21
4.911
  0
LINE
  8
0
 10
0.937
 11
1.243
 20
4.911
 21
4.843
  0
LINE
  8
0
 10
1.243
 11
1.545
 20
4.843
 21
4.755
  0
LINE
  8
0
 10
1.545
 11
1.841
 20
4.755
 21
4.649
  0
LINE
  8
0
 10
1.841
 11
2.129
 20
4.649
 21
4.524
  0
LINE
  8
0
 10
2.129
 11
2.409
 20
4.524
 21
4.382
  0
LINE
  8
0
 10
2.409
 11
2.679
 20
4.382
 21
4.222
  0
LINE
  8
0
 10
2.679
 11
2.939
 20
4.222
 21
4.045
  0
LINE
  8
0
 10
2.939
 11
3.187
 20
4.045
 21
3.853
  0
LINE
  8
0
 10
3.187
 11
3.423
 20
3.853
 21
3.645
  0
LINE
  8
0
 10
3.423
 11
3.645
 20
3.645
 21
3.423
  0
LINE
  8
0
 10
3.645
 11
3.853
 20
3.423
 21
3.187
  0
LINE
  8
0
 10
3.853
 11
4.045
 20
3.187
 21
2.939
  0
LINE
  8
0
 10
4.045
 11
4.222
 20
2.939
 21
2.679
  0
LINE
  8
0
 10
4.222
 11
4.382
 20
2.679
 21
2.409
  0
LINE
  8
0
 10
4.382
 11
4.524
 20
2.409
 21
2.129
  0
LINE
  8
0
 10
4.524
 11
4.649
 20
2.129
 21
1.841
  0
LINE
  8
0
 10
4.649
 11
4.755
 20
1.841
 21
1.545
  0
LINE
  8
0
 10
4.755
 11
4.843
 20
1.545
 21
1.243
  0
LINE
  8
0
 10
4.843
 11
4.911
 20
1.243
 21
0.937
  0
LINE
  8
0
 10
4.911
 11
4.961
 20
0.937
 21
0.627
  0
LINE
  8
0
 10
4.961
 11
4.99
 20
0.627
 21
0.314
  0
LINE
  8
0
 10
4.99
 11
5
 20
0.314
 21
0
  0
LINE
  8
0
 10
5
 11
4.99
 20
0
 21
-0.314
  0
LINE
  8
0
 10
4.99
 11
4.961
 20
-0.314
 21
-0.627
  0
LINE
  8
0
 10
4.961
 11
4.911
 20
-0.627
 21
-0.937
  0
LINE
  8
0
 10
4.911
 11
4.843
 20
-0.937
 21
-1.243
  0
LINE
  8
0
 10
4.843
 11
4.755
 20
-1.243
 21
-1.545
  0
LINE
  8
0
 10
4.755
 11
4.649
 20
-1.545
 21
-1.841
  0
LINE
  8
0
 10
4.649
 11
4.524
 20
-1.841
 21
-2.129
  0
LINE
  8
0
 10
4.524
 11
4.382
 20
-2.129
 21
-2.409
  0
LINE
  8
0
 10
4.382
 11
4.222
 20
-2.409
 21
-2.679
  0
LINE
  8
0
 10
4.222
 11
4.045
 20
-2.679
 21
-2.939
  0
LINE
  8
0
 10
4.045
 11
3.853
 20
-2.939
 21
-3.187
  0
LINE
  8
0
 10
3.853
 11
3.645
 20
-3.187
 21
-3.423
  0
LINE
  8
0
 10
3.645
 11
3.423
 20
-3.423
 21
-3.645
  0
LINE
  8
0
 10
3.423
 11
3.187
 20
-3.645
 21
-3.853
  0
LINE
  8
0
 10
3.187
 11
2.939
 20
-3.853
 21
-4.045
  0
LINE
  8
0
 10
2.939
 11
2.679
 20
-4.045
 21
-4.222
  0
LINE
  8
0
 10
2.679
 11
2.409
 20
-4.222
 21
-4.382
  0
LINE
  8
0
 10
2.409
 11
2.129
 20
-4.382
 21
-4.524
  0
LINE
  8
0
 10
2.129
 11
1.841
 20
-4.524
 21
-4.649
  0
LINE
  8
0
 10
1.841
 11
1.545
 20
-4.649
 21
-4.755
  0
LINE
  8
0
 10
1.545
 11
1.243
 20
-4.755
 21
-4.843
  0
LINE
  8
0
 10
1.243
 11
0.937
 20
-4.843
 21
-4.911
  0
LINE
  8
0
 10
0.937
 11
0.627
 20
-4.911
 21
-4.961
  0
LINE
  8
0
 10
0.627
 11
0.314
 20
-4.961
 21
-4.99
  0
LINE
  8
0
 10
0.314
 11
0
 20
-4.99
 21
-5
  0
LINE
  8
0
 10
0
 11
-0.314
 20
-5
 21
-4.99
  0
LINE
  8
0
 10
-0.314
 11
-0.627
 20
-4.99
 21
-4.961
  0
LINE
  8
0
 10
-0.627
 11
-0.937
 20
-4.961
 21
-4.911
  0
LINE
  8
0
 10
-0.937
 11
-1.243
 20
-4.911
 21
-4.843
  0
LINE
  8
0
 10
-1.243
 11
-1.545
 20
-4.843
 21
-4.755
  0
LINE
  8
0
 10
-1.545
 11
-1.841
 20
-4.755
 21
-4.649
  0
LINE
  8
0
 10
-1.841
 11
-2.129
 20
-4.649
 21
-4.524
  0
LINE
  8
0
 10
-2.129
 11
-2.409
 20
-4.524
 21
-4.382
  0
LINE
  8
0
 10
-2.409
 11
-2.679
 20
-4.382
 21
-4.222
  0
LINE
  8
0
 10
-2.679
 11
-2.939
 20
-4.222
 21
-4.045
  0
LINE
  8
0
 10
-2.939
 11
-3.187
 20
-4.045
 21
-3.853
  0
LINE
  8
0
 10
-3.187
 11
-3.423
 20
-3.853
 21
-3.645
  0
LINE
  8
0
 10
-3.423
 11
-3.645
 20
-3.645
 21
-3.423
  0
LINE
  8
0
 10
-3.645
 11
-3.853
 20
-3.423
 21
-3.187
  0
LINE
  8
0
 10
-3.853
 11
-4.045
 20
-3.187
 21
-2.939
  0
LINE
  8
0
 10
-4.045
 11
-4.222
 20
-2.939
 21
-2.679
  0
LINE
  8
0
 10
-4.222
 11
-4.382
 20
-2.679
 21
-2.409
  0
LINE
  8
0
 10
-4.382
 11
-4.524
 20
-2.409
 21
-2.129
  0
LINE
  8
0
 10
-4.524
 11
-4.649
 20
-2.129
 21
-1.841
  0
LINE
  8
0
 10
-4.649
 11
-4.755
 20
-1.841
 21
-1.545
  0
LINE
  8
0
 10
-4.755
 11
-4.843
 20
-1.545
 21
-1.243
  0
LINE
  8
0
 10
-4.843
 11
-4.911
 20
-1.243
 21
-0.937
  0
LINE
  8
0
 10
-4.911
 11
-4.961
 20
-0.937
 21
-0.627
  0
LINE
  8
0
 10
-4.961
 11
-4.99
 20
-0.627
 21
-0.314
  0
LINE
  8
0
 10
-4.99
 11
-5
 20
-0.314
 21
0
  0
ENDSEC
  0
SECTION
  2
OBJECTS
  0
DICTIONARY
  0
ENDSEC
  0
EOF
