  0
SECTION
  2
BLOCKS
  0
ENDSEC
  0
SECTION
  2
ENTITIES
  0
LINE
  8
0
 10
-51.731
 11
-51.731
 20
-5
 21
5
  0
LINE
  8
0
 10
-51.731
 11
51.731
 20
5
 21
5
  0
LINE
  8
0
 10
51.731
 11
51.731
 20
5
 21
-5
  0
LINE
  8
0
 10
51.731
 11
-51.731
 20
-5
 21
-5
  0
LINE
  8
0
 10
-48.231
 11
-48.223
 20
0
 21
0.251
  0
LINE
  8
0
 10
-48.223
 11
-48.199
 20
0.251
 21
0.501
  0
LINE
  8
0
 10
-48.199
 11
-48.16
 20
0.501
 21
0.75
  0
LINE
  8
0
 10
-48.16
 11
-48.105
 20
0.75
 21
0.995
  0
LINE
  8
0
 10
-48.105
 11
-48.035
 20
0.995
 21
1.236
  0
LINE
  8
0
 10
-48.035
 11
-47.95
 20
1.236
 21
1.472
  0
LINE
  8
0
 10
-47.95
 11
-47.85
 20
1.472
 21
1.703
  0
LINE
  8
0
 10
-47.85
 11
-47.736
 20
1.703
 21
1.927
  0
LINE
  8
0
 10
-47.736
 11
-47.608
 20
1.927
 21
2.143
  0
LINE
  8
0
 10
-47.608
 11
-47.467
 20
2.143
 21
2.351
  0
LINE
  8
0
 10
-47.467
 11
-47.313
 20
2.351
 21
2.55
  0
LINE
  8
0
 10
-47.313
 11
-47.147
 20
2.55
 21
2.738
  0
LINE
  8
0
 10
-47.147
 11
-46.969
 20
2.738
 21
2.916
  0
LINE
  8
0
 10
-46.969
 11
-46.781
 20
2.916
 21
3.082
  0
LINE
  8
0
 10
-46.781
 11
-46.582
 20
3.082
 21
3.236
  0
LINE
  8
0
 10
-46.582
 11
-46.374
 20
3.236
 21
3.377
  0
LINE
  8
0
 10
-46.374
 11
-46.158
 20
3.377
 21
3.505
  0
LINE
  8
0
 10
-46.158
 11
-45.934
 20
3.505
 21
3.619
  0
LINE
  8
0
 10
-45.934
 11
-45.703
 20
3.619
 21
3.719
  0
LINE
  8
0
 10
-45.703
 11
-45.467
 20
3.719
 21
3.804
  0
LINE
  8
0
 10
-45.467
 11
-45.226
 20
3.804
 21
3.874
  0
LINE
  8
0
 10
-45.226
 11
-44.981
 20
3.874
 21
3.929
  0
LINE
  8
0
 10
-44.981
 11
-44.732
 20
3.929
 21
3.968
  0
LINE
  8
0
 10
-44.732
 11
-44.482
 20
3.968
 21
3.992
  0
LINE
  8
0
 10
-44.482
 11
-44.231
 20
3.992
 21
4
  0
LINE
  8
0
 10
-44.231
 11
-43.98
 20
4
 21
3.992
  0
LINE
  8
0
 10
-43.98
 11
-43.73
 20
3.992
 21
3.968
  0
LINE
  8
0
 10
-43.73
 11
-43.481
 20
3.968
 21
3.929
  0
LINE
  8
0
 10
-43.481
 11
-43.236
 20
3.929
 21
3.874
  0
LINE
  8
0
 10
-43.236
 11
-42.995
 20
3.874
 21
3.804
  0
LINE
  8
0
 10
-42.995
 11
-42.759
 20
3.804
 21
3.719
  0
LINE
  8
0
 10
-42.759
 11
-42.528
 20
3.719
 21
3.619
  0
LINE
  8
0
 10
-42.528
 11
-42.304
 20
3.619
 21
3.505
  0
LINE
  8
0
 10
-42.304
 11
-42.088
 20
3.505
 21
3.377
  0
LINE
  8
0
 10
-42.088
 11
-41.88
 20
3.377
 21
3.236
  0
LINE
  8
0
 10
-41.88
 11
-41.681
 20
3.236
 21
3.082
  0
LINE
  8
0
 10
-41.681
 11
-41.493
 20
3.082
 21
2.916
  0
LINE
  8
0
 10
-41.493
 11
-41.315
 20
2.916
 21
2.738
  0
LINE
  8
0
 10
-41.315
 11
-41.149
 20
2.738
 21
2.55
  0
LINE
  8
0
 10
-41.149
 11
-40.995
 20
2.55
 21
2.351
  0
LINE
  8
0
 10
-40.995
 11
-40.854
 20
2.351
 21
2.143
  0
LINE
  8
0
 10
-40.854
 11
-40.726
 20
2.143
 21
1.927
  0
LINE
  8
0
 10
-40.726
 11
-40.612
 20
1.927
 21
1.703
  0
LINE
  8
0
 10
-40.612
 11
-40.512
 20
1.703
 21
1.472
  0
LINE
  8
0
 10
-40.512
 11
-40.427
 20
1.472
 21
1.236
  0
LINE
  8
0
 10
-40.427
 11
-40.357
 20
1.236
 21
0.995
  0
LINE
  8
0
 10
-40.357
 11
-40.302
 20
0.995
 21
0.75
  0
LINE
  8
0
 10
-40.302
 11
-40.263
 20
0.75
 21
0.501
  0
LINE
  8
0
 10
-40.263
 11
-40.239
 20
0.501
 21
0.251
  0
LINE
  8
0
 10
-40.239
 11
-40.231
 20
0.251
 21
0
  0
LINE
  8
0
 10
-40.231
 11
-40.239
 20
0
 21
-0.251
  0
LINE
  8
0
 10
-40.239
 11
-40.263
 20
-0.251
 21
-0.501
  0
LINE
  8
0
 10
-40.263
 11
-40.302
 20
-0.501
 21
-0.75
  0
LINE
  8
0
 10
-40.302
 11
-40.357
 20
-0.75
 21
-0.995
  0
LINE
  8
0
 10
-40.357
 11
-40.427
 20
-0.995
 21
-1.236
  0
LINE
  8
0
 10
-40.427
 11
-40.512
 20
-1.236
 21
-1.472
  0
LINE
  8
0
 10
-40.512
 11
-40.612
 20
-1.472
 21
-1.703
  0
LINE
  8
0
 10
-40.612
 11
-40.726
 20
-1.703
 21
-1.927
  0
LINE
  8
0
 10
-40.726
 11
-40.854
 20
-1.927
 21
-2.143
  0
LINE
  8
0
 10
-40.854
 11
-40.995
 20
-2.143
 21
-2.351
  0
LINE
  8
0
 10
-40.995
 11
-41.149
 20
-2.351
 21
-2.55
  0
LINE
  8
0
 10
-41.149
 11
-41.315
 20
-2.55
 21
-2.738
  0
LINE
  8
0
 10
-41.315
 11
-41.493
 20
-2.738
 21
-2.916
  0
LINE
  8
0
 10
-41.493
 11
-41.681
 20
-2.916
 21
-3.082
  0
LINE
  8
0
 10
-41.681
 11
-41.88
 20
-3.082
 21
-3.236
  0
LINE
  8
0
 10
-41.88
 11
-42.088
 20
-3.236
 21
-3.377
  0
LINE
  8
0
 10
-42.088
 11
-42.304
 20
-3.377
 21
-3.505
  0
LINE
  8
0
 10
-42.304
 11
-42.528
 20
-3.505
 21
-3.619
  0
LINE
  8
0
 10
-42.528
 11
-42.759
 20
-3.619
 21
-3.719
  0
LINE
  8
0
 10
-42.759
 11
-42.995
 20
-3.719
 21
-3.804
  0
LINE
  8
0
 10
-42.995
 11
-43.236
 20
-3.804
 21
-3.874
  0
LINE
  8
0
 10
-43.236
 11
-43.481
 20
-3.874
 21
-3.929
  0
LINE
  8
0
 10
-43.481
 11
-43.73
 20
-3.929
 21
-3.968
  0
LINE
  8
0
 10
-43.73
 11
-43.98
 20
-3.968
 21
-3.992
  0
LINE
  8
0
 10
-43.98
 11
-44.231
 20
-3.992
 21
-4
  0
LINE
  8
0
 10
-44.231
 11
-44.482
 20
-4
 21
-3.992
  0
LINE
  8
0
 10
-44.482
 11
-44.732
 20
-3.992
 21
-3.968
  0
LINE
  8
0
 10
-44.732
 11
-44.981
 20
-3.968
 21
-3.929
  0
LINE
  8
0
 10
-44.981
 11
-45.226
 20
-3.929
 21
-3.874
  0
LINE
  8
0
 10
-45.226
 11
-45.467
 20
-3.874
 21
-3.804
  0
LINE
  8
0
 10
-45.467
 11
-45.703
 20
-3.804
 21
-3.719
  0
LINE
  8
0
 10
-45.703
 11
-45.934
 20
-3.719
 21
-3.619
  0
LINE
  8
0
 10
-45.934
 11
-46.158
 20
-3.619
 21
-3.505
  0
LINE
  8
0
 10
-46.158
 11
-46.374
 20
-3.505
 21
-3.377
  0
LINE
  8
0
 10
-46.374
 11
-46.582
 20
-3.377
 21
-3.236
  0
LINE
  8
0
 10
-46.582
 11
-46.781
 20
-3.236
 21
-3.082
  0
LINE
  8
0
 10
-46.781
 11
-46.969
 20
-3.082
 21
-2.916
  0
LINE
  8
0
 10
-46.969
 11
-47.147
 20
-2.916
 21
-2.738
  0
LINE
  8
0
 10
-47.147
 11
-47.313
 20
-2.738
 21
-2.55
  0
LINE
  8
0
 10
-47.313
 11
-47.467
 20
-2.55
 21
-2.351
  0
LINE
  8
0
 10
-47.467
 11
-47.608
 20
-2.351
 21
-2.143
  0
LINE
  8
0
 10
-47.608
 11
-47.736
 20
-2.143
 21
-1.927
  0
LINE
  8
0
 10
-47.736
 11
-47.85
 20
-1.927
 21
-1.703
  0
LINE
  8
0
 10
-47.85
 11
-47.95
 20
-1.703
 21
-1.472
  0
LINE
  8
0
 10
-47.95
 11
-48.035
 20
-1.472
 21
-1.236
  0
LINE
  8
0
 10
-48.035
 11
-48.105
 20
-1.236
 21
-0.995
  0
LINE
  8
0
 10
-48.105
 11
-48.16
 20
-0.995
 21
-0.75
  0
LINE
  8
0
 10
-48.16
 11
-48.199
 20
-0.75
 21
-0.501
  0
LINE
  8
0
 10
-48.199
 11
-48.223
 20
-0.501
 21
-0.251
  0
LINE
  8
0
 10
-48.223
 11
-48.231
 20
-0.251
 21
0
  0
LINE
  8
0
 10
40.231
 11
40.239
 20
0
 21
0.251
  0
LINE
  8
0
 10
40.239
 11
40.263
 20
0.251
 21
0.501
  0
LINE
  8
0
 10
40.263
 11
40.302
 20
0.501
 21
0.75
  0
LINE
  8
0
 10
40.302
 11
40.357
 20
0.75
 21
0.995
  0
LINE
  8
0
 10
40.357
 11
40.427
 20
0.995
 21
1.236
  0
LINE
  8
0
 10
40.427
 11
40.512
 20
1.236
 21
1.472
  0
LINE
  8
0
 10
40.512
 11
40.612
 20
1.472
 21
1.703
  0
LINE
  8
0
 10
40.612
 11
40.726
 20
1.703
 21
1.927
  0
LINE
  8
0
 10
40.726
 11
40.854
 20
1.927
 21
2.143
  0
LINE
  8
0
 10
40.854
 11
40.995
 20
2.143
 21
2.351
  0
LINE
  8
0
 10
40.995
 11
41.149
 20
2.351
 21
2.55
  0
LINE
  8
0
 10
41.149
 11
41.315
 20
2.55
 21
2.738
  0
LINE
  8
0
 10
41.315
 11
41.493
 20
2.738
 21
2.916
  0
LINE
  8
0
 10
41.493
 11
41.681
 20
2.916
 21
3.082
  0
LINE
  8
0
 10
41.681
 11
41.88
 20
3.082
 21
3.236
  0
LINE
  8
0
 10
41.88
 11
42.088
 20
3.236
 21
3.377
  0
LINE
  8
0
 10
42.088
 11
42.304
 20
3.377
 21
3.505
  0
LINE
  8
0
 10
42.304
 11
42.528
 20
3.505
 21
3.619
  0
LINE
  8
0
 10
42.528
 11
42.759
 20
3.619
 21
3.719
  0
LINE
  8
0
 10
42.759
 11
42.995
 20
3.719
 21
3.804
  0
LINE
  8
0
 10
42.995
 11
43.236
 20
3.804
 21
3.874
  0
LINE
  8
0
 10
43.236
 11
43.481
 20
3.874
 21
3.929
  0
LINE
  8
0
 10
43.481
 11
43.73
 20
3.929
 21
3.968
  0
LINE
  8
0
 10
43.73
 11
43.98
 20
3.968
 21
3.992
  0
LINE
  8
0
 10
43.98
 11
44.231
 20
3.992
 21
4
  0
LINE
  8
0
 10
44.231
 11
44.482
 20
4
 21
3.992
  0
LINE
  8
0
 10
44.482
 11
44.732
 20
3.992
 21
3.968
  0
LINE
  8
0
 10
44.732
 11
44.981
 20
3.968
 21
3.929
  0
LINE
  8
0
 10
44.981
 11
45.226
 20
3.929
 21
3.874
  0
LINE
  8
0
 10
45.226
 11
45.467
 20
3.874
 21
3.804
  0
LINE
  8
0
 10
45.467
 11
45.703
 20
3.804
 21
3.719
  0
LINE
  8
0
 10
45.703
 11
45.934
 20
3.719
 21
3.619
  0
LINE
  8
0
 10
45.934
 11
46.158
 20
3.619
 21
3.505
  0
LINE
  8
0
 10
46.158
 11
46.374
 20
3.505
 21
3.377
  0
LINE
  8
0
 10
46.374
 11
46.582
 20
3.377
 21
3.236
  0
LINE
  8
0
 10
46.582
 11
46.781
 20
3.236
 21
3.082
  0
LINE
  8
0
 10
46.781
 11
46.969
 20
3.082
 21
2.916
  0
LINE
  8
0
 10
46.969
 11
47.147
 20
2.916
 21
2.738
  0
LINE
  8
0
 10
47.147
 11
47.313
 20
2.738
 21
2.55
  0
LINE
  8
0
 10
47.313
 11
47.467
 20
2.55
 21
2.351
  0
LINE
  8
0
 10
47.467
 11
47.608
 20
2.351
 21
2.143
  0
LINE
  8
0
 10
47.608
 11
47.736
 20
2.143
 21
1.927
  0
LINE
  8
0
 10
47.736
 11
47.85
 20
1.927
 21
1.703
  0
LINE
  8
0
 10
47.85
 11
47.95
 20
1.703
 21
1.472
  0
LINE
  8
0
 10
47.95
 11
48.035
 20
1.472
 21
1.236
  0
LINE
  8
0
 10
48.035
 11
48.105
 20
1.236
 21
0.995
  0
LINE
  8
0
 10
48.105
 11
48.16
 20
0.995
 21
0.75
  0
LINE
  8
0
 10
48.16
 11
48.199
 20
0.75
 21
0.501
  0
LINE
  8
0
 10
48.199
 11
48.223
 20
0.501
 21
0.251
  0
LINE
  8
0
 10
48.223
 11
48.231
 20
0.251
 21
0
  0
LINE
  8
0
 10
48.231
 11
48.223
 20
0
 21
-0.251
  0
LINE
  8
0
 10
48.223
 11
48.199
 20
-0.251
 21
-0.501
  0
LINE
  8
0
 10
48.199
 11
48.16
 20
-0.501
 21
-0.75
  0
LINE
  8
0
 10
48.16
 11
48.105
 20
-0.75
 21
-0.995
  0
LINE
  8
0
 10
48.105
 11
48.035
 20
-0.995
 21
-1.236
  0
LINE
  8
0
 10
48.035
 11
47.95
 20
-1.236
 21
-1.472
  0
LINE
  8
0
 10
47.95
 11
47.85
 20
-1.472
 21
-1.703
  0
LINE
  8
0
 10
47.85
 11
47.736
 20
-1.703
 21
-1.927
  0
LINE
  8
0
 10
47.736
 11
47.608
 20
-1.927
 21
-2.143
  0
LINE
  8
0
 10
47.608
 11
47.467
 20
-2.143
 21
-2.351
  0
LINE
  8
0
 10
47.467
 11
47.313
 20
-2.351
 21
-2.55
  0
LINE
  8
0
 10
47.313
 11
47.147
 20
-2.55
 21
-2.738
  0
LINE
  8
0
 10
47.147
 11
46.969
 20
-2.738
 21
-2.916
  0
LINE
  8
0
 10
46.969
 11
46.781
 20
-2.916
 21
-3.082
  0
LINE
  8
0
 10
46.781
 11
46.582
 20
-3.082
 21
-3.236
  0
LINE
  8
0
 10
46.582
 11
46.374
 20
-3.236
 21
-3.377
  0
LINE
  8
0
 10
46.374
 11
46.158
 20
-3.377
 21
-3.505
  0
LINE
  8
0
 10
46.158
 11
45.934
 20
-3.505
 21
-3.619
  0
LINE
  8
0
 10
45.934
 11
45.703
 20
-3.619
 21
-3.719
  0
LINE
  8
0
 10
45.703
 11
45.467
 20
-3.719
 21
-3.804
  0
LINE
  8
0
 10
45.467
 11
45.226
 20
-3.804
 21
-3.874
  0
LINE
  8
0
 10
45.226
 11
44.981
 20
-3.874
 21
-3.929
  0
LINE
  8
0
 10
44.981
 11
44.732
 20
-3.929
 21
-3.968
  0
LINE
  8
0
 10
44.732
 11
44.482
 20
-3.968
 21
-3.992
  0
LINE
  8
0
 10
44.482
 11
44.231
 20
-3.992
 21
-4
  0
LINE
  8
0
 10
44.231
 11
43.98
 20
-4
 21
-3.992
  0
LINE
  8
0
 10
43.98
 11
43.73
 20
-3.992
 21
-3.968
  0
LINE
  8
0
 10
43.73
 11
43.481
 20
-3.968
 21
-3.929
  0
LINE
  8
0
 10
43.481
 11
43.236
 20
-3.929
 21
-3.874
  0
LINE
  8
0
 10
43.236
 11
42.995
 20
-3.874
 21
-3.804
  0
LINE
  8
0
 10
42.995
 11
42.759
 20
-3.804
 21
-3.719
  0
LINE
  8
0
 10
42.759
 11
42.528
 20
-3.719
 21
-3.619
  0
LINE
  8
0
 10
42.528
 11
42.304
 20
-3.619
 21
-3.505
  0
LINE
  8
0
 10
42.304
 11
42.088
 20
-3.505
 21
-3.377
  0
LINE
  8
0
 10
42.088
 11
41.88
 20
-3.377
 21
-3.236
  0
LINE
  8
0
 10
41.88
 11
41.681
 20
-3.236
 21
-3.082
  0
LINE
  8
0
 10
41.681
 11
41.493
 20
-3.082
 21
-2.916
  0
LINE
  8
0
 10
41.493
 11
41.315
 20
-2.916
 21
-2.738
  0
LINE
  8
0
 10
41.315
 11
41.149
 20
-2.738
 21
-2.55
  0
LINE
  8
0
 10
41.149
 11
40.995
 20
-2.55
 21
-2.351
  0
LINE
  8
0
 10
40.995
 11
40.854
 20
-2.351
 21
-2.143
  0
LINE
  8
0
 10
40.854
 11
40.726
 20
-2.143
 21
-1.927
  0
LINE
  8
0
 10
40.726
 11
40.612
 20
-1.927
 21
-1.703
  0
LINE
  8
0
 10
40.612
 11
40.512
 20
-1.703
 21
-1.472
  0
LINE
  8
0
 10
40.512
 11
40.427
 20
-1.472
 21
-1.236
  0
LINE
  8
0
 10
40.427
 11
40.357
 20
-1.236
 21
-0.995
  0
LINE
  8
0
 10
40.357
 11
40.302
 20
-0.995
 21
-0.75
  0
LINE
  8
0
 10
40.302
 11
40.263
 20
-0.75
 21
-0.501
  0
LINE
  8
0
 10
40.263
 11
40.239
 20
-0.501
 21
-0.251
  0
LINE
  8
0
 10
40.239
 11
40.231
 20
-0.251
 21
0
  0
ENDSEC
  0
SECTION
  2
OBJECTS
  0
DICTIONARY
  0
ENDSEC
  0
EOF
