  0
SECTION
  2
BLOCKS
  0
ENDSEC
  0
SECTION
  2
ENTITIES
  0
LINE
  8
0
 10
-40
 11
-39.921
 20
0
 21
2.512
  0
LINE
  8
0
 10
-39.921
 11
-39.685
 20
2.512
 21
5.013
  0
LINE
  8
0
 10
-39.685
 11
-39.291
 20
5.013
 21
7.495
  0
LINE
  8
0
 10
-39.291
 11
-38.743
 20
7.495
 21
9.948
  0
LINE
  8
0
 10
-38.743
 11
-38.042
 20
9.948
 21
12.361
  0
LINE
  8
0
 10
-38.042
 11
-37.191
 20
12.361
 21
14.725
  0
LINE
  8
0
 10
-37.191
 11
-36.193
 20
14.725
 21
17.031
  0
LINE
  8
0
 10
-36.193
 11
-35.052
 20
17.031
 21
19.27
  0
LINE
  8
0
 10
-35.052
 11
-33.773
 20
19.27
 21
21.433
  0
LINE
  8
0
 10
-33.773
 11
-32.361
 20
21.433
 21
23.511
  0
LINE
  8
0
 10
-32.361
 11
-30.821
 20
23.511
 21
25.497
  0
LINE
  8
0
 10
-30.821
 11
-29.159
 20
25.497
 21
27.382
  0
LINE
  8
0
 10
-29.159
 11
-27.382
 20
27.382
 21
29.159
  0
LINE
  8
0
 10
-27.382
 11
-25.497
 20
29.159
 21
30.821
  0
LINE
  8
0
 10
-25.497
 11
-23.511
 20
30.821
 21
32.361
  0
LINE
  8
0
 10
-23.511
 11
-21.433
 20
32.361
 21
33.773
  0
LINE
  8
0
 10
-21.433
 11
-19.27
 20
33.773
 21
35.052
  0
LINE
  8
0
 10
-19.27
 11
-17.031
 20
35.052
 21
36.193
  0
LINE
  8
0
 10
-17.031
 11
-14.725
 20
36.193
 21
37.191
  0
LINE
  8
0
 10
-14.725
 11
-12.361
 20
37.191
 21
38.042
  0
LINE
  8
0
 10
-12.361
 11
-9.948
 20
38.042
 21
38.743
  0
LINE
  8
0
 10
-9.948
 11
-7.495
 20
38.743
 21
39.291
  0
LINE
  8
0
 10
-7.495
 11
-5.013
 20
39.291
 21
39.685
  0
LINE
  8
0
 10
-5.013
 11
-2.512
 20
39.685
 21
39.921
  0
LINE
  8
0
 10
-2.512
 11
0
 20
39.921
 21
40
  0
LINE
  8
0
 10
0
 11
2.512
 20
40
 21
39.921
  0
LINE
  8
0
 10
2.512
 11
5.013
 20
39.921
 21
39.685
  0
LINE
  8
0
 10
5.013
 11
7.495
 20
39.685
 21
39.291
  0
LINE
  8
0
 10
7.495
 11
9.948
 20
39.291
 21
38.743
  0
LINE
  8
0
 10
9.948
 11
12.361
 20
38.743
 21
38.042
  0
LINE
  8
0
 10
12.361
 11
14.725
 20
38.042
 21
37.191
  0
LINE
  8
0
 10
14.725
 11
17.031
 20
37.191
 21
36.193
  0
LINE
  8
0
 10
17.031
 11
19.27
 20
36.193
 21
35.052
  0
LINE
  8
0
 10
19.27
 11
21.433
 20
35.052
 21
33.773
  0
LINE
  8
0
 10
21.433
 11
23.511
 20
33.773
 21
32.361
  0
LINE
  8
0
 10
23.511
 11
25.497
 20
32.361
 21
30.821
  0
LINE
  8
0
 10
25.497
 11
27.382
 20
30.821
 21
29.159
  0
LINE
  8
0
 10
27.382
 11
29.159
 20
29.159
 21
27.382
  0
LINE
  8
0
 10
29.159
 11
30.821
 20
27.382
 21
25.497
  0
LINE
  8
0
 10
30.821
 11
32.361
 20
25.497
 21
23.511
  0
LINE
  8
0
 10
32.361
 11
33.773
 20
23.511
 21
21.433
  0
LINE
  8
0
 10
33.773
 11
35.052
 20
21.433
 21
19.27
  0
LINE
  8
0
 10
35.052
 11
36.193
 20
19.27
 21
17.031
  0
LINE
  8
0
 10
36.193
 11
37.191
 20
17.031
 21
14.725
  0
LINE
  8
0
 10
37.191
 11
38.042
 20
14.725
 21
12.361
  0
LINE
  8
0
 10
38.042
 11
38.743
 20
12.361
 21
9.948
  0
LINE
  8
0
 10
38.743
 11
39.291
 20
9.948
 21
7.495
  0
LINE
  8
0
 10
39.291
 11
39.685
 20
7.495
 21
5.013
  0
LINE
  8
0
 10
39.685
 11
39.921
 20
5.013
 21
2.512
  0
LINE
  8
0
 10
39.921
 11
40
 20
2.512
 21
0
  0
LINE
  8
0
 10
40
 11
39.921
 20
0
 21
-2.512
  0
LINE
  8
0
 10
39.921
 11
39.685
 20
-2.512
 21
-5.013
  0
LINE
  8
0
 10
39.685
 11
39.291
 20
-5.013
 21
-7.495
  0
LINE
  8
0
 10
39.291
 11
38.743
 20
-7.495
 21
-9.948
  0
LINE
  8
0
 10
38.743
 11
38.042
 20
-9.948
 21
-12.361
  0
LINE
  8
0
 10
38.042
 11
37.191
 20
-12.361
 21
-14.725
  0
LINE
  8
0
 10
37.191
 11
36.193
 20
-14.725
 21
-17.031
  0
LINE
  8
0
 10
36.193
 11
35.052
 20
-17.031
 21
-19.27
  0
LINE
  8
0
 10
35.052
 11
33.773
 20
-19.27
 21
-21.433
  0
LINE
  8
0
 10
33.773
 11
32.361
 20
-21.433
 21
-23.511
  0
LINE
  8
0
 10
32.361
 11
30.821
 20
-23.511
 21
-25.497
  0
LINE
  8
0
 10
30.821
 11
29.159
 20
-25.497
 21
-27.382
  0
LINE
  8
0
 10
29.159
 11
27.382
 20
-27.382
 21
-29.159
  0
LINE
  8
0
 10
27.382
 11
25.497
 20
-29.159
 21
-30.821
  0
LINE
  8
0
 10
25.497
 11
23.511
 20
-30.821
 21
-32.361
  0
LINE
  8
0
 10
23.511
 11
21.433
 20
-32.361
 21
-33.773
  0
LINE
  8
0
 10
21.433
 11
19.27
 20
-33.773
 21
-35.052
  0
LINE
  8
0
 10
19.27
 11
17.031
 20
-35.052
 21
-36.193
  0
LINE
  8
0
 10
17.031
 11
14.725
 20
-36.193
 21
-37.191
  0
LINE
  8
0
 10
14.725
 11
12.361
 20
-37.191
 21
-38.042
  0
LINE
  8
0
 10
12.361
 11
9.948
 20
-38.042
 21
-38.743
  0
LINE
  8
0
 10
9.948
 11
7.495
 20
-38.743
 21
-39.291
  0
LINE
  8
0
 10
7.495
 11
5.013
 20
-39.291
 21
-39.685
  0
LINE
  8
0
 10
5.013
 11
2.512
 20
-39.685
 21
-39.921
  0
LINE
  8
0
 10
2.512
 11
0
 20
-39.921
 21
-40
  0
LINE
  8
0
 10
0
 11
-2.512
 20
-40
 21
-39.921
  0
LINE
  8
0
 10
-2.512
 11
-5.013
 20
-39.921
 21
-39.685
  0
LINE
  8
0
 10
-5.013
 11
-7.495
 20
-39.685
 21
-39.291
  0
LINE
  8
0
 10
-7.495
 11
-9.948
 20
-39.291
 21
-38.743
  0
LINE
  8
0
 10
-9.948
 11
-12.361
 20
-38.743
 21
-38.042
  0
LINE
  8
0
 10
-12.361
 11
-14.725
 20
-38.042
 21
-37.191
  0
LINE
  8
0
 10
-14.725
 11
-17.031
 20
-37.191
 21
-36.193
  0
LINE
  8
0
 10
-17.031
 11
-19.27
 20
-36.193
 21
-35.052
  0
LINE
  8
0
 10
-19.27
 11
-21.433
 20
-35.052
 21
-33.773
  0
LINE
  8
0
 10
-21.433
 11
-23.511
 20
-33.773
 21
-32.361
  0
LINE
  8
0
 10
-23.511
 11
-25.497
 20
-32.361
 21
-30.821
  0
LINE
  8
0
 10
-25.497
 11
-27.382
 20
-30.821
 21
-29.159
  0
LINE
  8
0
 10
-27.382
 11
-29.159
 20
-29.159
 21
-27.382
  0
LINE
  8
0
 10
-29.159
 11
-30.821
 20
-27.382
 21
-25.497
  0
LINE
  8
0
 10
-30.821
 11
-32.361
 20
-25.497
 21
-23.511
  0
LINE
  8
0
 10
-32.361
 11
-33.773
 20
-23.511
 21
-21.433
  0
LINE
  8
0
 10
-33.773
 11
-35.052
 20
-21.433
 21
-19.27
  0
LINE
  8
0
 10
-35.052
 11
-36.193
 20
-19.27
 21
-17.031
  0
LINE
  8
0
 10
-36.193
 11
-37.191
 20
-17.031
 21
-14.725
  0
LINE
  8
0
 10
-37.191
 11
-38.042
 20
-14.725
 21
-12.361
  0
LINE
  8
0
 10
-38.042
 11
-38.743
 20
-12.361
 21
-9.948
  0
LINE
  8
0
 10
-38.743
 11
-39.291
 20
-9.948
 21
-7.495
  0
LINE
  8
0
 10
-39.291
 11
-39.685
 20
-7.495
 21
-5.013
  0
LINE
  8
0
 10
-39.685
 11
-39.921
 20
-5.013
 21
-2.512
  0
LINE
  8
0
 10
-39.921
 11
-40
 20
-2.512
 21
0
  0
LINE
  8
0
 10
-5
 11
-4.99
 20
0
 21
0.314
  0
LINE
  8
0
 10
-4.99
 11
-4.961
 20
0.314
 21
0.627
  0
LINE
  8
0
 10
-4.961
 11
-4.911
 20
0.627
 21
0.937
  0
LINE
  8
0
 10
-4.911
 11
-4.843
 20
0.937
 21
1.243
  0
LINE
  8
0
 10
-4.843
 11
-4.755
 20
1.243
 21
1.545
  0
LINE
  8
0
 10
-4.755
 11
-4.649
 20
1.545
 21
1.841
  0
LINE
  8
0
 10
-4.649
 11
-4.524
 20
1.841
 21
2.129
  0
LINE
  8
0
 10
-4.524
 11
-4.382
 20
2.129
 21
2.409
  0
LINE
  8
0
 10
-4.382
 11
-4.222
 20
2.409
 21
2.679
  0
LINE
  8
0
 10
-4.222
 11
-4.045
 20
2.679
 21
2.939
  0
LINE
  8
0
 10
-4.045
 11
-3.853
 20
2.939
 21
3.187
  0
LINE
  8
0
 10
-3.853
 11
-3.645
 20
3.187
 21
3.423
  0
LINE
  8
0
 10
-3.645
 11
-3.423
 20
3.423
 21
3.645
  0
LINE
  8
0
 10
-3.423
 11
-3.187
 20
3.645
 21
3.853
  0
LINE
  8
0
 10
-3.187
 11
-2.939
 20
3.853
 21
4.045
  0
LINE
  8
0
 10
-2.939
 11
-2.679
 20
4.045
 21
4.222
  0
LINE
  8
0
 10
-2.679
 11
-2.409
 20
4.222
 21
4.382
  0
LINE
  8
0
 10
-2.409
 11
-2.129
 20
4.382
 21
4.524
  0
LINE
  8
0
 10
-2.129
 11
-1.841
 20
4.524
 21
4.649
  0
LINE
  8
0
 10
-1.841
 11
-1.545
 20
4.649
 21
4.755
  0
LINE
  8
0
 10
-1.545
 11
-1.243
 20
4.755
 21
4.843
  0
LINE
  8
0
 10
-1.243
 11
-0.937
 20
4.843
 21
4.911
  0
LINE
  8
0
 10
-0.937
 11
-0.627
 20
4.911
 21
4.961
  0
LINE
  8
0
 10
-0.627
 11
-0.314
 20
4.961
 21
4.99
  0
LINE
  8
0
 10
-0.314
 11
0
 20
4.99
 21
5
  0
LINE
  8
0
 10
0
 11
0.314
 20
5
 21
4.99
  0
LINE
  8
0
 10
0.314
 11
0.627
 20
4.99
 21
4.961
  0
LINE
  8
0
 10
0.627
 11
0.937
 20
4.961
 21
4.911
  0
LINE
  8
0
 10
0.937
 11
1.243
 20
4.911
 21
4.843
  0
LINE
  8
0
 10
1.243
 11
1.545
 20
4.843
 21
4.755
  0
LINE
  8
0
 10
1.545
 11
1.841
 20
4.755
 21
4.649
  0
LINE
  8
0
 10
1.841
 11
2.129
 20
4.649
 21
4.524
  0
LINE
  8
0
 10
2.129
 11
2.409
 20
4.524
 21
4.382
  0
LINE
  8
0
 10
2.409
 11
2.679
 20
4.382
 21
4.222
  0
LINE
  8
0
 10
2.679
 11
2.939
 20
4.222
 21
4.045
  0
LINE
  8
0
 10
2.939
 11
3.187
 20
4.045
 21
3.853
  0
LINE
  8
0
 10
3.187
 11
3.423
 20
3.853
 21
3.645
  0
LINE
  8
0
 10
3.423
 11
3.645
 20
3.645
 21
3.423
  0
LINE
  8
0
 10
3.645
 11
3.853
 20
3.423
 21
3.187
  0
LINE
  8
0
 10
3.853
 11
4.045
 20
3.187
 21
2.939
  0
LINE
  8
0
 10
4.045
 11
4.222
 20
2.939
 21
2.679
  0
LINE
  8
0
 10
4.222
 11
4.382
 20
2.679
 21
2.409
  0
LINE
  8
0
 10
4.382
 11
4.524
 20
2.409
 21
2.129
  0
LINE
  8
0
 10
4.524
 11
4.649
 20
2.129
 21
1.841
  0
LINE
  8
0
 10
4.649
 11
4.755
 20
1.841
 21
1.545
  0
LINE
  8
0
 10
4.755
 11
4.843
 20
1.545
 21
1.243
  0
LINE
  8
0
 10
4.843
 11
4.911
 20
1.243
 21
0.937
  0
LINE
  8
0
 10
4.911
 11
4.961
 20
0.937
 21
0.627
  0
LINE
  8
0
 10
4.961
 11
4.99
 20
0.627
 21
0.314
  0
LINE
  8
0
 10
4.99
 11
5
 20
0.314
 21
0
  0
LINE
  8
0
 10
5
 11
4.99
 20
0
 21
-0.314
  0
LINE
  8
0
 10
4.99
 11
4.961
 20
-0.314
 21
-0.627
  0
LINE
  8
0
 10
4.961
 11
4.911
 20
-0.627
 21
-0.937
  0
LINE
  8
0
 10
4.911
 11
4.843
 20
-0.937
 21
-1.243
  0
LINE
  8
0
 10
4.843
 11
4.755
 20
-1.243
 21
-1.545
  0
LINE
  8
0
 10
4.755
 11
4.649
 20
-1.545
 21
-1.841
  0
LINE
  8
0
 10
4.649
 11
4.524
 20
-1.841
 21
-2.129
  0
LINE
  8
0
 10
4.524
 11
4.382
 20
-2.129
 21
-2.409
  0
LINE
  8
0
 10
4.382
 11
4.222
 20
-2.409
 21
-2.679
  0
LINE
  8
0
 10
4.222
 11
4.045
 20
-2.679
 21
-2.939
  0
LINE
  8
0
 10
4.045
 11
3.853
 20
-2.939
 21
-3.187
  0
LINE
  8
0
 10
3.853
 11
3.645
 20
-3.187
 21
-3.423
  0
LINE
  8
0
 10
3.645
 11
3.423
 20
-3.423
 21
-3.645
  0
LINE
  8
0
 10
3.423
 11
3.187
 20
-3.645
 21
-3.853
  0
LINE
  8
0
 10
3.187
 11
2.939
 20
-3.853
 21
-4.045
  0
LINE
  8
0
 10
2.939
 11
2.679
 20
-4.045
 21
-4.222
  0
LINE
  8
0
 10
2.679
 11
2.409
 20
-4.222
 21
-4.382
  0
LINE
  8
0
 10
2.409
 11
2.129
 20
-4.382
 21
-4.524
  0
LINE
  8
0
 10
2.129
 11
1.841
 20
-4.524
 21
-4.649
  0
LINE
  8
0
 10
1.841
 11
1.545
 20
-4.649
 21
-4.755
  0
LINE
  8
0
 10
1.545
 11
1.243
 20
-4.755
 21
-4.843
  0
LINE
  8
0
 10
1.243
 11
0.937
 20
-4.843
 21
-4.911
  0
LINE
  8
0
 10
0.937
 11
0.627
 20
-4.911
 21
-4.961
  0
LINE
  8
0
 10
0.627
 11
0.314
 20
-4.961
 21
-4.99
  0
LINE
  8
0
 10
0.314
 11
0
 20
-4.99
 21
-5
  0
LINE
  8
0
 10
0
 11
-0.314
 20
-5
 21
-4.99
  0
LINE
  8
0
 10
-0.314
 11
-0.627
 20
-4.99
 21
-4.961
  0
LINE
  8
0
 10
-0.627
 11
-0.937
 20
-4.961
 21
-4.911
  0
LINE
  8
0
 10
-0.937
 11
-1.243
 20
-4.911
 21
-4.843
  0
LINE
  8
0
 10
-1.243
 11
-1.545
 20
-4.843
 21
-4.755
  0
LINE
  8
0
 10
-1.545
 11
-1.841
 20
-4.755
 21
-4.649
  0
LINE
  8
0
 10
-1.841
 11
-2.129
 20
-4.649
 21
-4.524
  0
LINE
  8
0
 10
-2.129
 11
-2.409
 20
-4.524
 21
-4.382
  0
LINE
  8
0
 10
-2.409
 11
-2.679
 20
-4.382
 21
-4.222
  0
LINE
  8
0
 10
-2.679
 11
-2.939
 20
-4.222
 21
-4.045
  0
LINE
  8
0
 10
-2.939
 11
-3.187
 20
-4.045
 21
-3.853
  0
LINE
  8
0
 10
-3.187
 11
-3.423
 20
-3.853
 21
-3.645
  0
LINE
  8
0
 10
-3.423
 11
-3.645
 20
-3.645
 21
-3.423
  0
LINE
  8
0
 10
-3.645
 11
-3.853
 20
-3.423
 21
-3.187
  0
LINE
  8
0
 10
-3.853
 11
-4.045
 20
-3.187
 21
-2.939
  0
LINE
  8
0
 10
-4.045
 11
-4.222
 20
-2.939
 21
-2.679
  0
LINE
  8
0
 10
-4.222
 11
-4.382
 20
-2.679
 21
-2.409
  0
LINE
  8
0
 10
-4.382
 11
-4.524
 20
-2.409
 21
-2.129
  0
LINE
  8
0
 10
-4.524
 11
-4.649
 20
-2.129
 21
-1.841
  0
LINE
  8
0
 10
-4.649
 11
-4.755
 20
-1.841
 21
-1.545
  0
LINE
  8
0
 10
-4.755
 11
-4.843
 20
-1.545
 21
-1.243
  0
LINE
  8
0
 10
-4.843
 11
-4.911
 20
-1.243
 21
-0.937
  0
LINE
  8
0
 10
-4.911
 11
-4.961
 20
-0.937
 21
-0.627
  0
LINE
  8
0
 10
-4.961
 11
-4.99
 20
-0.627
 21
-0.314
  0
LINE
  8
0
 10
-4.99
 11
-5
 20
-0.314
 21
0
  0
ENDSEC
  0
SECTION
  2
OBJECTS
  0
DICTIONARY
  0
ENDSEC
  0
EOF
