  0
SECTION
  2
BLOCKS
  0
ENDSEC
  0
SECTION
  2
ENTITIES
  0
LINE
  8
0
 10
-57.5
 11
-57.5
 20
-5
 21
5
  0
LINE
  8
0
 10
-57.5
 11
57.5
 20
5
 21
5
  0
LINE
  8
0
 10
57.5
 11
57.5
 20
5
 21
-5
  0
LINE
  8
0
 10
57.5
 11
-57.5
 20
-5
 21
-5
  0
LINE
  8
0
 10
-54
 11
-53.992
 20
0
 21
0.251
  0
LINE
  8
0
 10
-53.992
 11
-53.968
 20
0.251
 21
0.501
  0
LINE
  8
0
 10
-53.968
 11
-53.929
 20
0.501
 21
0.75
  0
LINE
  8
0
 10
-53.929
 11
-53.874
 20
0.75
 21
0.995
  0
LINE
  8
0
 10
-53.874
 11
-53.804
 20
0.995
 21
1.236
  0
LINE
  8
0
 10
-53.804
 11
-53.719
 20
1.236
 21
1.472
  0
LINE
  8
0
 10
-53.719
 11
-53.619
 20
1.472
 21
1.703
  0
LINE
  8
0
 10
-53.619
 11
-53.505
 20
1.703
 21
1.927
  0
LINE
  8
0
 10
-53.505
 11
-53.377
 20
1.927
 21
2.143
  0
LINE
  8
0
 10
-53.377
 11
-53.236
 20
2.143
 21
2.351
  0
LINE
  8
0
 10
-53.236
 11
-53.082
 20
2.351
 21
2.55
  0
LINE
  8
0
 10
-53.082
 11
-52.916
 20
2.55
 21
2.738
  0
LINE
  8
0
 10
-52.916
 11
-52.738
 20
2.738
 21
2.916
  0
LINE
  8
0
 10
-52.738
 11
-52.55
 20
2.916
 21
3.082
  0
LINE
  8
0
 10
-52.55
 11
-52.351
 20
3.082
 21
3.236
  0
LINE
  8
0
 10
-52.351
 11
-52.143
 20
3.236
 21
3.377
  0
LINE
  8
0
 10
-52.143
 11
-51.927
 20
3.377
 21
3.505
  0
LINE
  8
0
 10
-51.927
 11
-51.703
 20
3.505
 21
3.619
  0
LINE
  8
0
 10
-51.703
 11
-51.472
 20
3.619
 21
3.719
  0
LINE
  8
0
 10
-51.472
 11
-51.236
 20
3.719
 21
3.804
  0
LINE
  8
0
 10
-51.236
 11
-50.995
 20
3.804
 21
3.874
  0
LINE
  8
0
 10
-50.995
 11
-50.75
 20
3.874
 21
3.929
  0
LINE
  8
0
 10
-50.75
 11
-50.501
 20
3.929
 21
3.968
  0
LINE
  8
0
 10
-50.501
 11
-50.251
 20
3.968
 21
3.992
  0
LINE
  8
0
 10
-50.251
 11
-50
 20
3.992
 21
4
  0
LINE
  8
0
 10
-50
 11
-49.749
 20
4
 21
3.992
  0
LINE
  8
0
 10
-49.749
 11
-49.499
 20
3.992
 21
3.968
  0
LINE
  8
0
 10
-49.499
 11
-49.25
 20
3.968
 21
3.929
  0
LINE
  8
0
 10
-49.25
 11
-49.005
 20
3.929
 21
3.874
  0
LINE
  8
0
 10
-49.005
 11
-48.764
 20
3.874
 21
3.804
  0
LINE
  8
0
 10
-48.764
 11
-48.528
 20
3.804
 21
3.719
  0
LINE
  8
0
 10
-48.528
 11
-48.297
 20
3.719
 21
3.619
  0
LINE
  8
0
 10
-48.297
 11
-48.073
 20
3.619
 21
3.505
  0
LINE
  8
0
 10
-48.073
 11
-47.857
 20
3.505
 21
3.377
  0
LINE
  8
0
 10
-47.857
 11
-47.649
 20
3.377
 21
3.236
  0
LINE
  8
0
 10
-47.649
 11
-47.45
 20
3.236
 21
3.082
  0
LINE
  8
0
 10
-47.45
 11
-47.262
 20
3.082
 21
2.916
  0
LINE
  8
0
 10
-47.262
 11
-47.084
 20
2.916
 21
2.738
  0
LINE
  8
0
 10
-47.084
 11
-46.918
 20
2.738
 21
2.55
  0
LINE
  8
0
 10
-46.918
 11
-46.764
 20
2.55
 21
2.351
  0
LINE
  8
0
 10
-46.764
 11
-46.623
 20
2.351
 21
2.143
  0
LINE
  8
0
 10
-46.623
 11
-46.495
 20
2.143
 21
1.927
  0
LINE
  8
0
 10
-46.495
 11
-46.381
 20
1.927
 21
1.703
  0
LINE
  8
0
 10
-46.381
 11
-46.281
 20
1.703
 21
1.472
  0
LINE
  8
0
 10
-46.281
 11
-46.196
 20
1.472
 21
1.236
  0
LINE
  8
0
 10
-46.196
 11
-46.126
 20
1.236
 21
0.995
  0
LINE
  8
0
 10
-46.126
 11
-46.071
 20
0.995
 21
0.75
  0
LINE
  8
0
 10
-46.071
 11
-46.032
 20
0.75
 21
0.501
  0
LINE
  8
0
 10
-46.032
 11
-46.008
 20
0.501
 21
0.251
  0
LINE
  8
0
 10
-46.008
 11
-46
 20
0.251
 21
0
  0
LINE
  8
0
 10
-46
 11
-46.008
 20
0
 21
-0.251
  0
LINE
  8
0
 10
-46.008
 11
-46.032
 20
-0.251
 21
-0.501
  0
LINE
  8
0
 10
-46.032
 11
-46.071
 20
-0.501
 21
-0.75
  0
LINE
  8
0
 10
-46.071
 11
-46.126
 20
-0.75
 21
-0.995
  0
LINE
  8
0
 10
-46.126
 11
-46.196
 20
-0.995
 21
-1.236
  0
LINE
  8
0
 10
-46.196
 11
-46.281
 20
-1.236
 21
-1.472
  0
LINE
  8
0
 10
-46.281
 11
-46.381
 20
-1.472
 21
-1.703
  0
LINE
  8
0
 10
-46.381
 11
-46.495
 20
-1.703
 21
-1.927
  0
LINE
  8
0
 10
-46.495
 11
-46.623
 20
-1.927
 21
-2.143
  0
LINE
  8
0
 10
-46.623
 11
-46.764
 20
-2.143
 21
-2.351
  0
LINE
  8
0
 10
-46.764
 11
-46.918
 20
-2.351
 21
-2.55
  0
LINE
  8
0
 10
-46.918
 11
-47.084
 20
-2.55
 21
-2.738
  0
LINE
  8
0
 10
-47.084
 11
-47.262
 20
-2.738
 21
-2.916
  0
LINE
  8
0
 10
-47.262
 11
-47.45
 20
-2.916
 21
-3.082
  0
LINE
  8
0
 10
-47.45
 11
-47.649
 20
-3.082
 21
-3.236
  0
LINE
  8
0
 10
-47.649
 11
-47.857
 20
-3.236
 21
-3.377
  0
LINE
  8
0
 10
-47.857
 11
-48.073
 20
-3.377
 21
-3.505
  0
LINE
  8
0
 10
-48.073
 11
-48.297
 20
-3.505
 21
-3.619
  0
LINE
  8
0
 10
-48.297
 11
-48.528
 20
-3.619
 21
-3.719
  0
LINE
  8
0
 10
-48.528
 11
-48.764
 20
-3.719
 21
-3.804
  0
LINE
  8
0
 10
-48.764
 11
-49.005
 20
-3.804
 21
-3.874
  0
LINE
  8
0
 10
-49.005
 11
-49.25
 20
-3.874
 21
-3.929
  0
LINE
  8
0
 10
-49.25
 11
-49.499
 20
-3.929
 21
-3.968
  0
LINE
  8
0
 10
-49.499
 11
-49.749
 20
-3.968
 21
-3.992
  0
LINE
  8
0
 10
-49.749
 11
-50
 20
-3.992
 21
-4
  0
LINE
  8
0
 10
-50
 11
-50.251
 20
-4
 21
-3.992
  0
LINE
  8
0
 10
-50.251
 11
-50.501
 20
-3.992
 21
-3.968
  0
LINE
  8
0
 10
-50.501
 11
-50.75
 20
-3.968
 21
-3.929
  0
LINE
  8
0
 10
-50.75
 11
-50.995
 20
-3.929
 21
-3.874
  0
LINE
  8
0
 10
-50.995
 11
-51.236
 20
-3.874
 21
-3.804
  0
LINE
  8
0
 10
-51.236
 11
-51.472
 20
-3.804
 21
-3.719
  0
LINE
  8
0
 10
-51.472
 11
-51.703
 20
-3.719
 21
-3.619
  0
LINE
  8
0
 10
-51.703
 11
-51.927
 20
-3.619
 21
-3.505
  0
LINE
  8
0
 10
-51.927
 11
-52.143
 20
-3.505
 21
-3.377
  0
LINE
  8
0
 10
-52.143
 11
-52.351
 20
-3.377
 21
-3.236
  0
LINE
  8
0
 10
-52.351
 11
-52.55
 20
-3.236
 21
-3.082
  0
LINE
  8
0
 10
-52.55
 11
-52.738
 20
-3.082
 21
-2.916
  0
LINE
  8
0
 10
-52.738
 11
-52.916
 20
-2.916
 21
-2.738
  0
LINE
  8
0
 10
-52.916
 11
-53.082
 20
-2.738
 21
-2.55
  0
LINE
  8
0
 10
-53.082
 11
-53.236
 20
-2.55
 21
-2.351
  0
LINE
  8
0
 10
-53.236
 11
-53.377
 20
-2.351
 21
-2.143
  0
LINE
  8
0
 10
-53.377
 11
-53.505
 20
-2.143
 21
-1.927
  0
LINE
  8
0
 10
-53.505
 11
-53.619
 20
-1.927
 21
-1.703
  0
LINE
  8
0
 10
-53.619
 11
-53.719
 20
-1.703
 21
-1.472
  0
LINE
  8
0
 10
-53.719
 11
-53.804
 20
-1.472
 21
-1.236
  0
LINE
  8
0
 10
-53.804
 11
-53.874
 20
-1.236
 21
-0.995
  0
LINE
  8
0
 10
-53.874
 11
-53.929
 20
-0.995
 21
-0.75
  0
LINE
  8
0
 10
-53.929
 11
-53.968
 20
-0.75
 21
-0.501
  0
LINE
  8
0
 10
-53.968
 11
-53.992
 20
-0.501
 21
-0.251
  0
LINE
  8
0
 10
-53.992
 11
-54
 20
-0.251
 21
0
  0
LINE
  8
0
 10
46
 11
46.008
 20
0
 21
0.251
  0
LINE
  8
0
 10
46.008
 11
46.032
 20
0.251
 21
0.501
  0
LINE
  8
0
 10
46.032
 11
46.071
 20
0.501
 21
0.75
  0
LINE
  8
0
 10
46.071
 11
46.126
 20
0.75
 21
0.995
  0
LINE
  8
0
 10
46.126
 11
46.196
 20
0.995
 21
1.236
  0
LINE
  8
0
 10
46.196
 11
46.281
 20
1.236
 21
1.472
  0
LINE
  8
0
 10
46.281
 11
46.381
 20
1.472
 21
1.703
  0
LINE
  8
0
 10
46.381
 11
46.495
 20
1.703
 21
1.927
  0
LINE
  8
0
 10
46.495
 11
46.623
 20
1.927
 21
2.143
  0
LINE
  8
0
 10
46.623
 11
46.764
 20
2.143
 21
2.351
  0
LINE
  8
0
 10
46.764
 11
46.918
 20
2.351
 21
2.55
  0
LINE
  8
0
 10
46.918
 11
47.084
 20
2.55
 21
2.738
  0
LINE
  8
0
 10
47.084
 11
47.262
 20
2.738
 21
2.916
  0
LINE
  8
0
 10
47.262
 11
47.45
 20
2.916
 21
3.082
  0
LINE
  8
0
 10
47.45
 11
47.649
 20
3.082
 21
3.236
  0
LINE
  8
0
 10
47.649
 11
47.857
 20
3.236
 21
3.377
  0
LINE
  8
0
 10
47.857
 11
48.073
 20
3.377
 21
3.505
  0
LINE
  8
0
 10
48.073
 11
48.297
 20
3.505
 21
3.619
  0
LINE
  8
0
 10
48.297
 11
48.528
 20
3.619
 21
3.719
  0
LINE
  8
0
 10
48.528
 11
48.764
 20
3.719
 21
3.804
  0
LINE
  8
0
 10
48.764
 11
49.005
 20
3.804
 21
3.874
  0
LINE
  8
0
 10
49.005
 11
49.25
 20
3.874
 21
3.929
  0
LINE
  8
0
 10
49.25
 11
49.499
 20
3.929
 21
3.968
  0
LINE
  8
0
 10
49.499
 11
49.749
 20
3.968
 21
3.992
  0
LINE
  8
0
 10
49.749
 11
50
 20
3.992
 21
4
  0
LINE
  8
0
 10
50
 11
50.251
 20
4
 21
3.992
  0
LINE
  8
0
 10
50.251
 11
50.501
 20
3.992
 21
3.968
  0
LINE
  8
0
 10
50.501
 11
50.75
 20
3.968
 21
3.929
  0
LINE
  8
0
 10
50.75
 11
50.995
 20
3.929
 21
3.874
  0
LINE
  8
0
 10
50.995
 11
51.236
 20
3.874
 21
3.804
  0
LINE
  8
0
 10
51.236
 11
51.472
 20
3.804
 21
3.719
  0
LINE
  8
0
 10
51.472
 11
51.703
 20
3.719
 21
3.619
  0
LINE
  8
0
 10
51.703
 11
51.927
 20
3.619
 21
3.505
  0
LINE
  8
0
 10
51.927
 11
52.143
 20
3.505
 21
3.377
  0
LINE
  8
0
 10
52.143
 11
52.351
 20
3.377
 21
3.236
  0
LINE
  8
0
 10
52.351
 11
52.55
 20
3.236
 21
3.082
  0
LINE
  8
0
 10
52.55
 11
52.738
 20
3.082
 21
2.916
  0
LINE
  8
0
 10
52.738
 11
52.916
 20
2.916
 21
2.738
  0
LINE
  8
0
 10
52.916
 11
53.082
 20
2.738
 21
2.55
  0
LINE
  8
0
 10
53.082
 11
53.236
 20
2.55
 21
2.351
  0
LINE
  8
0
 10
53.236
 11
53.377
 20
2.351
 21
2.143
  0
LINE
  8
0
 10
53.377
 11
53.505
 20
2.143
 21
1.927
  0
LINE
  8
0
 10
53.505
 11
53.619
 20
1.927
 21
1.703
  0
LINE
  8
0
 10
53.619
 11
53.719
 20
1.703
 21
1.472
  0
LINE
  8
0
 10
53.719
 11
53.804
 20
1.472
 21
1.236
  0
LINE
  8
0
 10
53.804
 11
53.874
 20
1.236
 21
0.995
  0
LINE
  8
0
 10
53.874
 11
53.929
 20
0.995
 21
0.75
  0
LINE
  8
0
 10
53.929
 11
53.968
 20
0.75
 21
0.501
  0
LINE
  8
0
 10
53.968
 11
53.992
 20
0.501
 21
0.251
  0
LINE
  8
0
 10
53.992
 11
54
 20
0.251
 21
0
  0
LINE
  8
0
 10
54
 11
53.992
 20
0
 21
-0.251
  0
LINE
  8
0
 10
53.992
 11
53.968
 20
-0.251
 21
-0.501
  0
LINE
  8
0
 10
53.968
 11
53.929
 20
-0.501
 21
-0.75
  0
LINE
  8
0
 10
53.929
 11
53.874
 20
-0.75
 21
-0.995
  0
LINE
  8
0
 10
53.874
 11
53.804
 20
-0.995
 21
-1.236
  0
LINE
  8
0
 10
53.804
 11
53.719
 20
-1.236
 21
-1.472
  0
LINE
  8
0
 10
53.719
 11
53.619
 20
-1.472
 21
-1.703
  0
LINE
  8
0
 10
53.619
 11
53.505
 20
-1.703
 21
-1.927
  0
LINE
  8
0
 10
53.505
 11
53.377
 20
-1.927
 21
-2.143
  0
LINE
  8
0
 10
53.377
 11
53.236
 20
-2.143
 21
-2.351
  0
LINE
  8
0
 10
53.236
 11
53.082
 20
-2.351
 21
-2.55
  0
LINE
  8
0
 10
53.082
 11
52.916
 20
-2.55
 21
-2.738
  0
LINE
  8
0
 10
52.916
 11
52.738
 20
-2.738
 21
-2.916
  0
LINE
  8
0
 10
52.738
 11
52.55
 20
-2.916
 21
-3.082
  0
LINE
  8
0
 10
52.55
 11
52.351
 20
-3.082
 21
-3.236
  0
LINE
  8
0
 10
52.351
 11
52.143
 20
-3.236
 21
-3.377
  0
LINE
  8
0
 10
52.143
 11
51.927
 20
-3.377
 21
-3.505
  0
LINE
  8
0
 10
51.927
 11
51.703
 20
-3.505
 21
-3.619
  0
LINE
  8
0
 10
51.703
 11
51.472
 20
-3.619
 21
-3.719
  0
LINE
  8
0
 10
51.472
 11
51.236
 20
-3.719
 21
-3.804
  0
LINE
  8
0
 10
51.236
 11
50.995
 20
-3.804
 21
-3.874
  0
LINE
  8
0
 10
50.995
 11
50.75
 20
-3.874
 21
-3.929
  0
LINE
  8
0
 10
50.75
 11
50.501
 20
-3.929
 21
-3.968
  0
LINE
  8
0
 10
50.501
 11
50.251
 20
-3.968
 21
-3.992
  0
LINE
  8
0
 10
50.251
 11
50
 20
-3.992
 21
-4
  0
LINE
  8
0
 10
50
 11
49.749
 20
-4
 21
-3.992
  0
LINE
  8
0
 10
49.749
 11
49.499
 20
-3.992
 21
-3.968
  0
LINE
  8
0
 10
49.499
 11
49.25
 20
-3.968
 21
-3.929
  0
LINE
  8
0
 10
49.25
 11
49.005
 20
-3.929
 21
-3.874
  0
LINE
  8
0
 10
49.005
 11
48.764
 20
-3.874
 21
-3.804
  0
LINE
  8
0
 10
48.764
 11
48.528
 20
-3.804
 21
-3.719
  0
LINE
  8
0
 10
48.528
 11
48.297
 20
-3.719
 21
-3.619
  0
LINE
  8
0
 10
48.297
 11
48.073
 20
-3.619
 21
-3.505
  0
LINE
  8
0
 10
48.073
 11
47.857
 20
-3.505
 21
-3.377
  0
LINE
  8
0
 10
47.857
 11
47.649
 20
-3.377
 21
-3.236
  0
LINE
  8
0
 10
47.649
 11
47.45
 20
-3.236
 21
-3.082
  0
LINE
  8
0
 10
47.45
 11
47.262
 20
-3.082
 21
-2.916
  0
LINE
  8
0
 10
47.262
 11
47.084
 20
-2.916
 21
-2.738
  0
LINE
  8
0
 10
47.084
 11
46.918
 20
-2.738
 21
-2.55
  0
LINE
  8
0
 10
46.918
 11
46.764
 20
-2.55
 21
-2.351
  0
LINE
  8
0
 10
46.764
 11
46.623
 20
-2.351
 21
-2.143
  0
LINE
  8
0
 10
46.623
 11
46.495
 20
-2.143
 21
-1.927
  0
LINE
  8
0
 10
46.495
 11
46.381
 20
-1.927
 21
-1.703
  0
LINE
  8
0
 10
46.381
 11
46.281
 20
-1.703
 21
-1.472
  0
LINE
  8
0
 10
46.281
 11
46.196
 20
-1.472
 21
-1.236
  0
LINE
  8
0
 10
46.196
 11
46.126
 20
-1.236
 21
-0.995
  0
LINE
  8
0
 10
46.126
 11
46.071
 20
-0.995
 21
-0.75
  0
LINE
  8
0
 10
46.071
 11
46.032
 20
-0.75
 21
-0.501
  0
LINE
  8
0
 10
46.032
 11
46.008
 20
-0.501
 21
-0.251
  0
LINE
  8
0
 10
46.008
 11
46
 20
-0.251
 21
0
  0
ENDSEC
  0
SECTION
  2
OBJECTS
  0
DICTIONARY
  0
ENDSEC
  0
EOF
