  0
SECTION
  2
BLOCKS
  0
ENDSEC
  0
SECTION
  2
ENTITIES
  0
LINE
  8
0
 10
-40
 11
-39.921
 20
0
 21
2.512
  0
LINE
  8
0
 10
-39.921
 11
-39.685
 20
2.512
 21
5.013
  0
LINE
  8
0
 10
-39.685
 11
-39.291
 20
5.013
 21
7.495
  0
LINE
  8
0
 10
-39.291
 11
-38.743
 20
7.495
 21
9.948
  0
LINE
  8
0
 10
-38.743
 11
-38.042
 20
9.948
 21
12.361
  0
LINE
  8
0
 10
-38.042
 11
-37.191
 20
12.361
 21
14.725
  0
LINE
  8
0
 10
-37.191
 11
-36.193
 20
14.725
 21
17.031
  0
LINE
  8
0
 10
-36.193
 11
-35.052
 20
17.031
 21
19.27
  0
LINE
  8
0
 10
-35.052
 11
-33.773
 20
19.27
 21
21.433
  0
LINE
  8
0
 10
-33.773
 11
-32.361
 20
21.433
 21
23.511
  0
LINE
  8
0
 10
-32.361
 11
-30.821
 20
23.511
 21
25.497
  0
LINE
  8
0
 10
-30.821
 11
-29.159
 20
25.497
 21
27.382
  0
LINE
  8
0
 10
-29.159
 11
-27.382
 20
27.382
 21
29.159
  0
LINE
  8
0
 10
-27.382
 11
-25.497
 20
29.159
 21
30.821
  0
LINE
  8
0
 10
-25.497
 11
-23.511
 20
30.821
 21
32.361
  0
LINE
  8
0
 10
-23.511
 11
-21.433
 20
32.361
 21
33.773
  0
LINE
  8
0
 10
-21.433
 11
-19.27
 20
33.773
 21
35.052
  0
LINE
  8
0
 10
-19.27
 11
-17.031
 20
35.052
 21
36.193
  0
LINE
  8
0
 10
-17.031
 11
-14.725
 20
36.193
 21
37.191
  0
LINE
  8
0
 10
-14.725
 11
-12.361
 20
37.191
 21
38.042
  0
LINE
  8
0
 10
-12.361
 11
-9.948
 20
38.042
 21
38.743
  0
LINE
  8
0
 10
-9.948
 11
-7.495
 20
38.743
 21
39.291
  0
LINE
  8
0
 10
-7.495
 11
-5.013
 20
39.291
 21
39.685
  0
LINE
  8
0
 10
-5.013
 11
-2.512
 20
39.685
 21
39.921
  0
LINE
  8
0
 10
-2.512
 11
0
 20
39.921
 21
40
  0
LINE
  8
0
 10
0
 11
2.512
 20
40
 21
39.921
  0
LINE
  8
0
 10
2.512
 11
5.013
 20
39.921
 21
39.685
  0
LINE
  8
0
 10
5.013
 11
7.495
 20
39.685
 21
39.291
  0
LINE
  8
0
 10
7.495
 11
9.948
 20
39.291
 21
38.743
  0
LINE
  8
0
 10
9.948
 11
12.361
 20
38.743
 21
38.042
  0
LINE
  8
0
 10
12.361
 11
14.725
 20
38.042
 21
37.191
  0
LINE
  8
0
 10
14.725
 11
17.031
 20
37.191
 21
36.193
  0
LINE
  8
0
 10
17.031
 11
19.27
 20
36.193
 21
35.052
  0
LINE
  8
0
 10
19.27
 11
21.433
 20
35.052
 21
33.773
  0
LINE
  8
0
 10
21.433
 11
23.511
 20
33.773
 21
32.361
  0
LINE
  8
0
 10
23.511
 11
25.497
 20
32.361
 21
30.821
  0
LINE
  8
0
 10
25.497
 11
27.382
 20
30.821
 21
29.159
  0
LINE
  8
0
 10
27.382
 11
29.159
 20
29.159
 21
27.382
  0
LINE
  8
0
 10
29.159
 11
30.821
 20
27.382
 21
25.497
  0
LINE
  8
0
 10
30.821
 11
32.361
 20
25.497
 21
23.511
  0
LINE
  8
0
 10
32.361
 11
33.773
 20
23.511
 21
21.433
  0
LINE
  8
0
 10
33.773
 11
35.052
 20
21.433
 21
19.27
  0
LINE
  8
0
 10
35.052
 11
36.193
 20
19.27
 21
17.031
  0
LINE
  8
0
 10
36.193
 11
37.191
 20
17.031
 21
14.725
  0
LINE
  8
0
 10
37.191
 11
38.042
 20
14.725
 21
12.361
  0
LINE
  8
0
 10
38.042
 11
38.743
 20
12.361
 21
9.948
  0
LINE
  8
0
 10
38.743
 11
39.291
 20
9.948
 21
7.495
  0
LINE
  8
0
 10
39.291
 11
39.685
 20
7.495
 21
5.013
  0
LINE
  8
0
 10
39.685
 11
39.921
 20
5.013
 21
2.512
  0
LINE
  8
0
 10
39.921
 11
40
 20
2.512
 21
0
  0
LINE
  8
0
 10
40
 11
39.921
 20
0
 21
-2.512
  0
LINE
  8
0
 10
39.921
 11
39.685
 20
-2.512
 21
-5.013
  0
LINE
  8
0
 10
39.685
 11
39.291
 20
-5.013
 21
-7.495
  0
LINE
  8
0
 10
39.291
 11
38.743
 20
-7.495
 21
-9.948
  0
LINE
  8
0
 10
38.743
 11
38.042
 20
-9.948
 21
-12.361
  0
LINE
  8
0
 10
38.042
 11
37.191
 20
-12.361
 21
-14.725
  0
LINE
  8
0
 10
37.191
 11
36.193
 20
-14.725
 21
-17.031
  0
LINE
  8
0
 10
36.193
 11
35.052
 20
-17.031
 21
-19.27
  0
LINE
  8
0
 10
35.052
 11
33.773
 20
-19.27
 21
-21.433
  0
LINE
  8
0
 10
33.773
 11
32.361
 20
-21.433
 21
-23.511
  0
LINE
  8
0
 10
32.361
 11
30.821
 20
-23.511
 21
-25.497
  0
LINE
  8
0
 10
30.821
 11
29.159
 20
-25.497
 21
-27.382
  0
LINE
  8
0
 10
29.159
 11
27.382
 20
-27.382
 21
-29.159
  0
LINE
  8
0
 10
27.382
 11
25.497
 20
-29.159
 21
-30.821
  0
LINE
  8
0
 10
25.497
 11
23.511
 20
-30.821
 21
-32.361
  0
LINE
  8
0
 10
23.511
 11
21.433
 20
-32.361
 21
-33.773
  0
LINE
  8
0
 10
21.433
 11
19.27
 20
-33.773
 21
-35.052
  0
LINE
  8
0
 10
19.27
 11
17.031
 20
-35.052
 21
-36.193
  0
LINE
  8
0
 10
17.031
 11
14.725
 20
-36.193
 21
-37.191
  0
LINE
  8
0
 10
14.725
 11
12.361
 20
-37.191
 21
-38.042
  0
LINE
  8
0
 10
12.361
 11
9.948
 20
-38.042
 21
-38.743
  0
LINE
  8
0
 10
9.948
 11
7.495
 20
-38.743
 21
-39.291
  0
LINE
  8
0
 10
7.495
 11
5.013
 20
-39.291
 21
-39.685
  0
LINE
  8
0
 10
5.013
 11
2.512
 20
-39.685
 21
-39.921
  0
LINE
  8
0
 10
2.512
 11
0
 20
-39.921
 21
-40
  0
LINE
  8
0
 10
0
 11
-2.512
 20
-40
 21
-39.921
  0
LINE
  8
0
 10
-2.512
 11
-5.013
 20
-39.921
 21
-39.685
  0
LINE
  8
0
 10
-5.013
 11
-7.495
 20
-39.685
 21
-39.291
  0
LINE
  8
0
 10
-7.495
 11
-9.948
 20
-39.291
 21
-38.743
  0
LINE
  8
0
 10
-9.948
 11
-12.361
 20
-38.743
 21
-38.042
  0
LINE
  8
0
 10
-12.361
 11
-14.725
 20
-38.042
 21
-37.191
  0
LINE
  8
0
 10
-14.725
 11
-17.031
 20
-37.191
 21
-36.193
  0
LINE
  8
0
 10
-17.031
 11
-19.27
 20
-36.193
 21
-35.052
  0
LINE
  8
0
 10
-19.27
 11
-21.433
 20
-35.052
 21
-33.773
  0
LINE
  8
0
 10
-21.433
 11
-23.511
 20
-33.773
 21
-32.361
  0
LINE
  8
0
 10
-23.511
 11
-25.497
 20
-32.361
 21
-30.821
  0
LINE
  8
0
 10
-25.497
 11
-27.382
 20
-30.821
 21
-29.159
  0
LINE
  8
0
 10
-27.382
 11
-29.159
 20
-29.159
 21
-27.382
  0
LINE
  8
0
 10
-29.159
 11
-30.821
 20
-27.382
 21
-25.497
  0
LINE
  8
0
 10
-30.821
 11
-32.361
 20
-25.497
 21
-23.511
  0
LINE
  8
0
 10
-32.361
 11
-33.773
 20
-23.511
 21
-21.433
  0
LINE
  8
0
 10
-33.773
 11
-35.052
 20
-21.433
 21
-19.27
  0
LINE
  8
0
 10
-35.052
 11
-36.193
 20
-19.27
 21
-17.031
  0
LINE
  8
0
 10
-36.193
 11
-37.191
 20
-17.031
 21
-14.725
  0
LINE
  8
0
 10
-37.191
 11
-38.042
 20
-14.725
 21
-12.361
  0
LINE
  8
0
 10
-38.042
 11
-38.743
 20
-12.361
 21
-9.948
  0
LINE
  8
0
 10
-38.743
 11
-39.291
 20
-9.948
 21
-7.495
  0
LINE
  8
0
 10
-39.291
 11
-39.685
 20
-7.495
 21
-5.013
  0
LINE
  8
0
 10
-39.685
 11
-39.921
 20
-5.013
 21
-2.512
  0
LINE
  8
0
 10
-39.921
 11
-40
 20
-2.512
 21
0
  0
LINE
  8
0
 10
-2
 11
-1.996
 20
0
 21
0.126
  0
LINE
  8
0
 10
-1.996
 11
-1.984
 20
0.126
 21
0.251
  0
LINE
  8
0
 10
-1.984
 11
-1.965
 20
0.251
 21
0.375
  0
LINE
  8
0
 10
-1.965
 11
-1.937
 20
0.375
 21
0.497
  0
LINE
  8
0
 10
-1.937
 11
-1.902
 20
0.497
 21
0.618
  0
LINE
  8
0
 10
-1.902
 11
-1.86
 20
0.618
 21
0.736
  0
LINE
  8
0
 10
-1.86
 11
-1.81
 20
0.736
 21
0.852
  0
LINE
  8
0
 10
-1.81
 11
-1.753
 20
0.852
 21
0.964
  0
LINE
  8
0
 10
-1.753
 11
-1.689
 20
0.964
 21
1.072
  0
LINE
  8
0
 10
-1.689
 11
-1.618
 20
1.072
 21
1.176
  0
LINE
  8
0
 10
-1.618
 11
-1.541
 20
1.176
 21
1.275
  0
LINE
  8
0
 10
-1.541
 11
-1.458
 20
1.275
 21
1.369
  0
LINE
  8
0
 10
-1.458
 11
-1.369
 20
1.369
 21
1.458
  0
LINE
  8
0
 10
-1.369
 11
-1.275
 20
1.458
 21
1.541
  0
LINE
  8
0
 10
-1.275
 11
-1.176
 20
1.541
 21
1.618
  0
LINE
  8
0
 10
-1.176
 11
-1.072
 20
1.618
 21
1.689
  0
LINE
  8
0
 10
-1.072
 11
-0.964
 20
1.689
 21
1.753
  0
LINE
  8
0
 10
-0.964
 11
-0.852
 20
1.753
 21
1.81
  0
LINE
  8
0
 10
-0.852
 11
-0.736
 20
1.81
 21
1.86
  0
LINE
  8
0
 10
-0.736
 11
-0.618
 20
1.86
 21
1.902
  0
LINE
  8
0
 10
-0.618
 11
-0.497
 20
1.902
 21
1.937
  0
LINE
  8
0
 10
-0.497
 11
-0.375
 20
1.937
 21
1.965
  0
LINE
  8
0
 10
-0.375
 11
-0.251
 20
1.965
 21
1.984
  0
LINE
  8
0
 10
-0.251
 11
-0.126
 20
1.984
 21
1.996
  0
LINE
  8
0
 10
-0.126
 11
0
 20
1.996
 21
2
  0
LINE
  8
0
 10
0
 11
0.126
 20
2
 21
1.996
  0
LINE
  8
0
 10
0.126
 11
0.251
 20
1.996
 21
1.984
  0
LINE
  8
0
 10
0.251
 11
0.375
 20
1.984
 21
1.965
  0
LINE
  8
0
 10
0.375
 11
0.497
 20
1.965
 21
1.937
  0
LINE
  8
0
 10
0.497
 11
0.618
 20
1.937
 21
1.902
  0
LINE
  8
0
 10
0.618
 11
0.736
 20
1.902
 21
1.86
  0
LINE
  8
0
 10
0.736
 11
0.852
 20
1.86
 21
1.81
  0
LINE
  8
0
 10
0.852
 11
0.964
 20
1.81
 21
1.753
  0
LINE
  8
0
 10
0.964
 11
1.072
 20
1.753
 21
1.689
  0
LINE
  8
0
 10
1.072
 11
1.176
 20
1.689
 21
1.618
  0
LINE
  8
0
 10
1.176
 11
1.275
 20
1.618
 21
1.541
  0
LINE
  8
0
 10
1.275
 11
1.369
 20
1.541
 21
1.458
  0
LINE
  8
0
 10
1.369
 11
1.458
 20
1.458
 21
1.369
  0
LINE
  8
0
 10
1.458
 11
1.541
 20
1.369
 21
1.275
  0
LINE
  8
0
 10
1.541
 11
1.618
 20
1.275
 21
1.176
  0
LINE
  8
0
 10
1.618
 11
1.689
 20
1.176
 21
1.072
  0
LINE
  8
0
 10
1.689
 11
1.753
 20
1.072
 21
0.964
  0
LINE
  8
0
 10
1.753
 11
1.81
 20
0.964
 21
0.852
  0
LINE
  8
0
 10
1.81
 11
1.86
 20
0.852
 21
0.736
  0
LINE
  8
0
 10
1.86
 11
1.902
 20
0.736
 21
0.618
  0
LINE
  8
0
 10
1.902
 11
1.937
 20
0.618
 21
0.497
  0
LINE
  8
0
 10
1.937
 11
1.965
 20
0.497
 21
0.375
  0
LINE
  8
0
 10
1.965
 11
1.984
 20
0.375
 21
0.251
  0
LINE
  8
0
 10
1.984
 11
1.996
 20
0.251
 21
0.126
  0
LINE
  8
0
 10
1.996
 11
2
 20
0.126
 21
0
  0
LINE
  8
0
 10
2
 11
1.996
 20
0
 21
-0.126
  0
LINE
  8
0
 10
1.996
 11
1.984
 20
-0.126
 21
-0.251
  0
LINE
  8
0
 10
1.984
 11
1.965
 20
-0.251
 21
-0.375
  0
LINE
  8
0
 10
1.965
 11
1.937
 20
-0.375
 21
-0.497
  0
LINE
  8
0
 10
1.937
 11
1.902
 20
-0.497
 21
-0.618
  0
LINE
  8
0
 10
1.902
 11
1.86
 20
-0.618
 21
-0.736
  0
LINE
  8
0
 10
1.86
 11
1.81
 20
-0.736
 21
-0.852
  0
LINE
  8
0
 10
1.81
 11
1.753
 20
-0.852
 21
-0.964
  0
LINE
  8
0
 10
1.753
 11
1.689
 20
-0.964
 21
-1.072
  0
LINE
  8
0
 10
1.689
 11
1.618
 20
-1.072
 21
-1.176
  0
LINE
  8
0
 10
1.618
 11
1.541
 20
-1.176
 21
-1.275
  0
LINE
  8
0
 10
1.541
 11
1.458
 20
-1.275
 21
-1.369
  0
LINE
  8
0
 10
1.458
 11
1.369
 20
-1.369
 21
-1.458
  0
LINE
  8
0
 10
1.369
 11
1.275
 20
-1.458
 21
-1.541
  0
LINE
  8
0
 10
1.275
 11
1.176
 20
-1.541
 21
-1.618
  0
LINE
  8
0
 10
1.176
 11
1.072
 20
-1.618
 21
-1.689
  0
LINE
  8
0
 10
1.072
 11
0.964
 20
-1.689
 21
-1.753
  0
LINE
  8
0
 10
0.964
 11
0.852
 20
-1.753
 21
-1.81
  0
LINE
  8
0
 10
0.852
 11
0.736
 20
-1.81
 21
-1.86
  0
LINE
  8
0
 10
0.736
 11
0.618
 20
-1.86
 21
-1.902
  0
LINE
  8
0
 10
0.618
 11
0.497
 20
-1.902
 21
-1.937
  0
LINE
  8
0
 10
0.497
 11
0.375
 20
-1.937
 21
-1.965
  0
LINE
  8
0
 10
0.375
 11
0.251
 20
-1.965
 21
-1.984
  0
LINE
  8
0
 10
0.251
 11
0.126
 20
-1.984
 21
-1.996
  0
LINE
  8
0
 10
0.126
 11
0
 20
-1.996
 21
-2
  0
LINE
  8
0
 10
0
 11
-0.126
 20
-2
 21
-1.996
  0
LINE
  8
0
 10
-0.126
 11
-0.251
 20
-1.996
 21
-1.984
  0
LINE
  8
0
 10
-0.251
 11
-0.375
 20
-1.984
 21
-1.965
  0
LINE
  8
0
 10
-0.375
 11
-0.497
 20
-1.965
 21
-1.937
  0
LINE
  8
0
 10
-0.497
 11
-0.618
 20
-1.937
 21
-1.902
  0
LINE
  8
0
 10
-0.618
 11
-0.736
 20
-1.902
 21
-1.86
  0
LINE
  8
0
 10
-0.736
 11
-0.852
 20
-1.86
 21
-1.81
  0
LINE
  8
0
 10
-0.852
 11
-0.964
 20
-1.81
 21
-1.753
  0
LINE
  8
0
 10
-0.964
 11
-1.072
 20
-1.753
 21
-1.689
  0
LINE
  8
0
 10
-1.072
 11
-1.176
 20
-1.689
 21
-1.618
  0
LINE
  8
0
 10
-1.176
 11
-1.275
 20
-1.618
 21
-1.541
  0
LINE
  8
0
 10
-1.275
 11
-1.369
 20
-1.541
 21
-1.458
  0
LINE
  8
0
 10
-1.369
 11
-1.458
 20
-1.458
 21
-1.369
  0
LINE
  8
0
 10
-1.458
 11
-1.541
 20
-1.369
 21
-1.275
  0
LINE
  8
0
 10
-1.541
 11
-1.618
 20
-1.275
 21
-1.176
  0
LINE
  8
0
 10
-1.618
 11
-1.689
 20
-1.176
 21
-1.072
  0
LINE
  8
0
 10
-1.689
 11
-1.753
 20
-1.072
 21
-0.964
  0
LINE
  8
0
 10
-1.753
 11
-1.81
 20
-0.964
 21
-0.852
  0
LINE
  8
0
 10
-1.81
 11
-1.86
 20
-0.852
 21
-0.736
  0
LINE
  8
0
 10
-1.86
 11
-1.902
 20
-0.736
 21
-0.618
  0
LINE
  8
0
 10
-1.902
 11
-1.937
 20
-0.618
 21
-0.497
  0
LINE
  8
0
 10
-1.937
 11
-1.965
 20
-0.497
 21
-0.375
  0
LINE
  8
0
 10
-1.965
 11
-1.984
 20
-0.375
 21
-0.251
  0
LINE
  8
0
 10
-1.984
 11
-1.996
 20
-0.251
 21
-0.126
  0
LINE
  8
0
 10
-1.996
 11
-2
 20
-0.126
 21
0
  0
ENDSEC
  0
SECTION
  2
OBJECTS
  0
DICTIONARY
  0
ENDSEC
  0
EOF
